<svg width="78" height="30" viewBox="0 0 78 30" fill="none" xmlns="http://www.w3.org/2000/svg">
<path d="M11.208 15.1L6.168 19.9H11.208V23.5H0.96V19.9L6 15.1H0.96V11.5H11.208V15.1ZM18.5325 23.812C17.4285 23.812 16.4205 23.528 15.5085 22.96C14.6045 22.392 13.8805 21.628 13.3365 20.668C12.8005 19.708 12.5325 18.648 12.5325 17.488C12.5325 16.616 12.6885 15.8 13.0005 15.04C13.3125 14.272 13.7405 13.6 14.2845 13.024C14.8365 12.44 15.4765 11.984 16.2045 11.656C16.9325 11.328 17.7085 11.164 18.5325 11.164C19.4925 11.164 20.3685 11.376 21.1605 11.8C21.9605 12.216 22.6325 12.784 23.1765 13.504C23.7285 14.216 24.1205 15.02 24.3525 15.916C24.5845 16.812 24.6085 17.736 24.4245 18.688H16.4205C16.5325 18.968 16.6805 19.224 16.8645 19.456C17.0565 19.68 17.2885 19.86 17.5605 19.996C17.8405 20.132 18.1645 20.204 18.5325 20.212C18.8845 20.22 19.2085 20.144 19.5045 19.984C19.8085 19.824 20.0725 19.608 20.2965 19.336L23.9685 20.188C23.4805 21.252 22.7525 22.124 21.7845 22.804C20.8165 23.476 19.7325 23.812 18.5325 23.812ZM16.2885 16.048H20.7885C20.6765 15.704 20.5085 15.4 20.2845 15.136C20.0605 14.872 19.7965 14.664 19.4925 14.512C19.1965 14.36 18.8765 14.284 18.5325 14.284C18.1965 14.284 17.8765 14.36 17.5725 14.512C17.2765 14.664 17.0165 14.872 16.7925 15.136C16.5765 15.4 16.4085 15.704 16.2885 16.048ZM37.5986 15.832V23.5H33.9986V16.84C33.9986 16.464 33.9066 16.124 33.7226 15.82C33.5386 15.508 33.2946 15.264 32.9906 15.088C32.6866 14.904 32.3466 14.812 31.9706 14.812C31.5946 14.812 31.2506 14.904 30.9386 15.088C30.6346 15.264 30.3906 15.508 30.2066 15.82C30.0306 16.124 29.9426 16.464 29.9426 16.84V23.5H26.3426L26.3306 11.5H29.9306L29.9426 12.256C30.3426 11.912 30.7986 11.644 31.3106 11.452C31.8226 11.26 32.3626 11.164 32.9306 11.164C33.7946 11.164 34.5786 11.376 35.2826 11.8C35.9866 12.216 36.5466 12.776 36.9626 13.48C37.3866 14.184 37.5986 14.968 37.5986 15.832ZM46.5947 15.1H44.5547V23.5H40.9547V15.1H39.3947V11.5H40.9547V7.732H44.5547V11.5H46.5947V15.1ZM48.7723 23.5L48.7603 11.5H52.3603L52.3723 12.256C52.7723 11.912 53.2283 11.644 53.7403 11.452C54.2523 11.26 54.7923 11.164 55.3603 11.164C55.7923 11.164 56.2323 11.228 56.6803 11.356L55.2643 15.004C54.9843 14.876 54.6963 14.812 54.4003 14.812C54.0243 14.812 53.6803 14.904 53.3683 15.088C53.0643 15.264 52.8203 15.508 52.6363 15.82C52.4603 16.124 52.3723 16.464 52.3723 16.84V23.5H48.7723ZM57.8775 11.5H61.4775V23.5H57.8775V11.5ZM59.7015 10.252C59.1815 10.252 58.7455 10.08 58.3935 9.736C58.0415 9.392 57.8655 8.964 57.8655 8.452C57.8655 7.948 58.0415 7.524 58.3935 7.18C58.7455 6.828 59.1775 6.652 59.6895 6.652C60.1935 6.652 60.6175 6.828 60.9615 7.18C61.3135 7.524 61.4895 7.948 61.4895 8.452C61.4895 8.964 61.3175 9.392 60.9735 9.736C60.6375 10.08 60.2135 10.252 59.7015 10.252ZM67.6884 29.5H64.0884V11.5H67.6884V12.628C68.0644 12.204 68.5004 11.86 68.9964 11.596C69.4924 11.324 70.0644 11.188 70.7124 11.188C71.5924 11.188 72.4124 11.352 73.1724 11.68C73.9324 12.008 74.6004 12.464 75.1764 13.048C75.7604 13.624 76.2124 14.292 76.5324 15.052C76.8604 15.812 77.0244 16.628 77.0244 17.5C77.0244 18.372 76.8604 19.192 76.5324 19.96C76.2124 20.728 75.7604 21.404 75.1764 21.988C74.6004 22.564 73.9324 23.016 73.1724 23.344C72.4124 23.672 71.5924 23.836 70.7124 23.836C70.0644 23.836 69.4924 23.7 68.9964 23.428C68.5004 23.156 68.0644 22.812 67.6884 22.396V29.5ZM70.6644 14.644C70.1764 14.644 69.7284 14.776 69.3204 15.04C68.9204 15.296 68.6004 15.64 68.3604 16.072C68.1204 16.504 68.0004 16.98 68.0004 17.5C68.0004 18.028 68.1204 18.508 68.3604 18.94C68.6004 19.372 68.9204 19.716 69.3204 19.972C69.7284 20.228 70.1764 20.356 70.6644 20.356C71.1604 20.356 71.6124 20.228 72.0204 19.972C72.4284 19.716 72.7524 19.372 72.9924 18.94C73.2324 18.508 73.3524 18.028 73.3524 17.5C73.3524 16.98 73.2324 16.504 72.9924 16.072C72.7524 15.64 72.4284 15.296 72.0204 15.04C71.6124 14.776 71.1604 14.644 70.6644 14.644Z" fill="#161616"/>
<circle cx="59.5" cy="8" r="2.5" fill="#E61C5D"/>
</svg>
