<svg width="187" height="72" viewBox="0 0 187 72" fill="none" xmlns="http://www.w3.org/2000/svg">
<path d="M28.02 32.04L9.57 51.96H28.02V57H2.4V51.96L20.85 32.04H2.4V27H28.02V32.04ZM46.8 57.78C44.04 57.78 41.52 57.07 39.24 55.65C36.98 54.23 35.17 52.33 33.81 49.95C32.47 47.55 31.8 44.9 31.8 42C31.8 39.8 32.19 37.75 32.97 35.85C33.75 33.93 34.82 32.25 36.18 30.81C37.56 29.35 39.16 28.21 40.98 27.39C42.8 26.57 44.74 26.16 46.8 26.16C49.06 26.16 51.13 26.62 53.01 27.54C54.91 28.44 56.53 29.7 57.87 31.32C59.23 32.94 60.24 34.82 60.9 36.96C61.58 39.1 61.83 41.39 61.65 43.83H37.17C37.41 45.53 37.97 47.05 38.85 48.39C39.73 49.71 40.85 50.76 42.21 51.54C43.59 52.32 45.12 52.72 46.8 52.74C48.6 52.74 50.23 52.28 51.69 51.36C53.15 50.42 54.33 49.14 55.23 47.52L60.36 48.72C59.16 51.38 57.35 53.56 54.93 55.26C52.51 56.94 49.8 57.78 46.8 57.78ZM37.02 39.87H56.58C56.42 38.19 55.88 36.66 54.96 35.28C54.04 33.88 52.87 32.76 51.45 31.92C50.03 31.08 48.48 30.66 46.8 30.66C45.12 30.66 43.58 31.07 42.18 31.89C40.78 32.71 39.62 33.82 38.7 35.22C37.8 36.6 37.24 38.15 37.02 39.87ZM93.2255 38.34V57H88.1855V39.45C88.1855 37.93 87.8155 36.55 87.0755 35.31C86.3355 34.07 85.3455 33.09 84.1055 32.37C82.8655 31.63 81.4855 31.26 79.9655 31.26C78.4655 31.26 77.0855 31.63 75.8255 32.37C74.5855 33.09 73.5955 34.07 72.8555 35.31C72.1155 36.55 71.7455 37.93 71.7455 39.45V57H66.7055V27H71.7455V30.75C72.8055 29.35 74.1455 28.24 75.7655 27.42C77.3855 26.58 79.1455 26.16 81.0455 26.16C83.2855 26.16 85.3255 26.71 87.1655 27.81C89.0255 28.89 90.4955 30.35 91.5755 32.19C92.6755 34.03 93.2255 36.08 93.2255 38.34ZM114.765 32.04H107.955L107.925 57H102.885L102.915 32.04H97.755V27H102.915L102.885 17.58H107.925L107.955 27H114.765V32.04ZM120.143 57V27H125.183V30.75C126.243 29.35 127.583 28.24 129.203 27.42C130.823 26.58 132.583 26.16 134.483 26.16C135.643 26.16 136.763 26.31 137.843 26.61L135.803 31.65C134.983 31.39 134.183 31.26 133.403 31.26C131.903 31.26 130.523 31.63 129.263 32.37C128.023 33.09 127.033 34.07 126.293 35.31C125.553 36.55 125.183 37.93 125.183 39.45V57H120.143ZM141.53 27H146.57V57H141.53V27ZM144.11 22.11C143.31 22.11 142.64 21.85 142.1 21.33C141.56 20.81 141.29 20.16 141.29 19.38C141.29 18.6 141.56 17.95 142.1 17.43C142.64 16.91 143.3 16.65 144.08 16.65C144.86 16.65 145.52 16.91 146.06 17.43C146.6 17.95 146.87 18.6 146.87 19.38C146.87 20.16 146.6 20.81 146.06 21.33C145.54 21.85 144.89 22.11 144.11 22.11ZM158.523 72H153.483V27H158.523V32.13C159.543 30.37 160.903 28.95 162.603 27.87C164.303 26.77 166.323 26.22 168.663 26.22C170.843 26.22 172.883 26.63 174.783 27.45C176.703 28.27 178.383 29.41 179.823 30.87C181.263 32.31 182.393 33.98 183.213 35.88C184.033 37.78 184.443 39.82 184.443 42C184.443 44.18 184.033 46.23 183.213 48.15C182.393 50.07 181.263 51.76 179.823 53.22C178.383 54.66 176.703 55.79 174.783 56.61C172.883 57.43 170.843 57.84 168.663 57.84C166.323 57.84 164.303 57.3 162.603 56.22C160.903 55.12 159.543 53.69 158.523 51.93V72ZM168.603 31.11C166.663 31.11 164.963 31.6 163.503 32.58C162.043 33.56 160.913 34.87 160.113 36.51C159.333 38.15 158.943 39.98 158.943 42C158.943 44 159.333 45.83 160.113 47.49C160.913 49.15 162.033 50.47 163.473 51.45C164.933 52.43 166.643 52.92 168.603 52.92C170.543 52.92 172.323 52.44 173.943 51.48C175.563 50.5 176.863 49.19 177.843 47.55C178.823 45.89 179.313 44.04 179.313 42C179.313 40 178.833 38.18 177.873 36.54C176.913 34.88 175.623 33.56 174.003 32.58C172.383 31.6 170.583 31.11 168.603 31.11Z" fill="#161616"/>
<circle cx="144.1" cy="19.1" r="3.1" fill="#E61C5D"/>
</svg>
