<svg width="32" height="32" viewBox="0 0 32 32" fill="none" xmlns="http://www.w3.org/2000/svg">
<rect width="32" height="32" rx="1" fill="#FDFDFD"/>
<path d="M29.8769 14.5108C29.6762 12.9483 29.1928 11.4354 28.4504 10.0457C26.9514 7.25275 24.5199 5.07431 21.5797 3.89C21.2082 3.76085 20.8461 3.60655 20.4682 3.49962L19.3283 3.20372L18.1632 3.02745C17.776 2.97398 17.3793 2.97715 16.9887 2.95177V2.95152C15.4167 2.91222 13.8495 3.14537 12.3569 3.64121C9.34931 4.65221 6.80118 6.70321 5.17125 9.42565C4.36093 10.7733 3.79281 12.2525 3.493 13.796L3.31648 14.9611L3.25667 16.1388C3.24568 16.3349 3.24568 16.5317 3.25667 16.7277C3.25667 16.923 3.25667 17.1181 3.28181 17.3134C3.326 17.7038 3.34798 18.0973 3.42659 18.4816H3.42683C3.93807 21.6141 5.54915 24.4621 7.97052 26.5141C8.37848 26.8361 8.80646 27.1318 9.25202 27.3991C9.68855 27.6952 10.1429 27.9645 10.6124 28.205C11.5426 28.6757 12.5272 29.03 13.544 29.26C14.5567 29.4819 15.5936 29.5761 16.6297 29.5402C15.6014 29.5014 14.5804 29.3503 13.5848 29.09C13.4241 29.0458 13.2698 28.9956 13.1031 28.9484V28.9482C14.2591 29.2109 15.4468 29.3044 16.6297 29.2253C15.7984 29.1733 14.974 29.0424 14.1673 28.8349C14.3941 28.8632 14.6175 28.8884 14.8443 28.9074C15.3341 28.9382 15.825 28.9394 16.3148 28.9104C15.3433 28.8498 14.379 28.7021 13.4336 28.4697C12.7974 28.3085 12.1726 28.1054 11.5633 27.862C10.4751 27.3195 9.47146 26.6215 8.58452 25.79C6.32771 23.8886 4.82546 21.2429 4.3494 18.3306C4.27688 17.9718 4.25809 17.6065 4.21707 17.2442C4.19827 17.0648 4.21707 16.879 4.19192 16.6995C4.18094 16.5169 4.18094 16.334 4.19192 16.1517L4.25491 15.0557L4.41873 13.9757V13.9759C4.70218 12.5404 5.23511 11.1656 5.99298 9.91392C7.50373 7.38436 9.86748 5.47742 12.6592 4.53573C14.0472 4.07992 15.5035 3.86705 16.9637 3.90586C17.3289 3.931 17.6942 3.92466 18.0562 3.9752L19.1489 4.1295L20.207 4.40342C20.5567 4.50425 20.8935 4.64903 21.2397 4.76548C23.969 5.86973 26.2251 7.89536 27.616 10.4901C28.3064 11.7802 28.7556 13.1857 28.9414 14.6371C28.9998 14.9975 29.0313 15.3617 29.0359 15.7267L29.0642 16.2714V16.8193C29.0623 17.0024 29.0505 17.1852 29.0298 17.3671C29.0298 17.5466 29.0046 17.7292 28.9732 17.9086C28.9165 18.2707 28.8567 18.6298 28.7874 18.9887H28.7871C28.6702 19.6427 28.5007 20.2861 28.2803 20.9127C28.1763 21.1488 28.0662 21.3788 27.9497 21.6085C27.5088 22.483 26.9812 23.3112 26.3753 24.0805C25.7583 24.8529 25.0708 25.5666 24.3223 26.2121C25.1518 25.6539 25.9045 24.9889 26.561 24.2347C26.6272 24.1591 26.687 24.0804 26.75 24.0048C26.0942 24.9616 25.3198 25.8314 24.445 26.5931C25.0039 26.2176 25.5305 25.7965 26.0195 25.3336C25.5314 25.8939 25.0053 26.4201 24.445 26.9081C25.3064 26.3199 26.083 25.6166 26.7532 24.8173C27.3491 24.1193 27.8618 23.3541 28.2803 22.5374C28.9048 21.4925 29.3816 20.3661 29.6973 19.1903C30.0349 17.6536 30.0957 16.0691 29.8767 14.5111L29.8769 14.5108Z" fill="black"/>
<path d="M23.0781 19.9453C22.7866 19.7952 22.4614 19.7224 22.1336 19.7344C21.5291 19.8037 20.9507 20.02 20.449 20.3643C19.9514 20.6541 19.4698 20.9656 18.9973 21.29C18.6824 21.5137 18.3674 21.7466 18.0337 21.9858L17.1174 21.5764C16.9129 21.4819 16.7019 21.3906 16.4876 21.2993H16.4878C17.1001 20.8337 17.6787 20.3254 18.2195 19.7786C19.0911 18.9475 19.7842 17.948 20.2569 16.8406C20.3716 16.5366 20.4468 16.2192 20.4805 15.896C20.5139 15.582 20.5139 15.2654 20.4805 14.9514L20.449 14.7405L20.386 14.5012L20.3199 14.2652C20.2852 14.1865 20.2473 14.1109 20.2098 14.0352C20.177 13.9575 20.1382 13.8826 20.0931 13.8115L19.9388 13.6038C19.8335 13.4695 19.7119 13.3489 19.5767 13.2447C19.0503 12.8687 18.4194 12.667 17.7725 12.6685H17.5552C17.7129 12.5469 17.8445 12.3948 17.9424 12.2215C18.1219 11.8821 18.2117 11.503 18.2039 11.1191C18.2056 11.4905 18.0725 11.8496 17.8291 12.1301C17.6109 12.3845 17.2742 12.5044 16.9444 12.4448C16.6736 12.3689 16.4507 12.176 16.3367 11.919C16.2151 11.6658 16.1536 11.3877 16.157 11.1067C16.1536 10.8252 16.2161 10.5471 16.3399 10.2942C16.4564 10.0428 16.6773 9.85526 16.9444 9.78104C17.2732 9.72269 17.6085 9.84256 17.826 10.096C18.0745 10.3784 18.209 10.7431 18.2039 11.1191C18.2063 10.7402 18.1131 10.3665 17.9331 10.033C17.7371 9.64822 17.3701 9.37967 16.9444 9.30861C16.7068 9.27662 16.4649 9.31032 16.2454 9.40626C16.0296 9.50538 15.8384 9.6504 15.6848 9.83131C15.3814 10.1914 15.2173 10.6484 15.2219 11.1191C15.2202 11.5896 15.3841 12.0454 15.6848 12.4072C15.8323 12.5747 16.0122 12.7107 16.2139 12.8071C16.1414 12.8071 16.0659 12.8354 15.9934 12.8542C15.8487 12.8889 15.7036 12.9172 15.5652 12.9614C15.417 12.998 15.2717 13.0454 15.1306 13.103C14.9778 13.1584 14.8328 13.2336 14.6992 13.3266L14.4978 13.4682C14.4348 13.5185 14.3845 13.5815 14.3247 13.6381H14.3245C13.9031 14.1059 13.6462 14.6987 13.594 15.3261C13.5329 15.9257 13.6072 16.5314 13.8113 17.0988C13.9961 17.6884 14.4119 18.1779 14.9636 18.456C15.2561 18.5817 15.5877 18.5817 15.8801 18.456C16.1526 18.3198 16.3738 18.0988 16.5098 17.8261C16.7585 17.3022 16.906 16.7361 16.9443 16.1572C16.8564 16.7121 16.6663 17.2461 16.3838 17.7316C16.2551 17.9677 16.0544 18.1564 15.8108 18.2702C15.5642 18.3625 15.2903 18.3476 15.0549 18.2292C14.5972 17.9521 14.2678 17.5048 14.1387 16.9856C13.9883 16.466 13.9558 15.9194 14.0442 15.3859C14.1108 14.8713 14.3418 14.3921 14.7024 14.0193C14.7444 13.9751 14.7898 13.9341 14.8376 13.8965L14.9919 13.7988C15.0893 13.7341 15.1955 13.6833 15.3069 13.6477C15.4316 13.601 15.5603 13.5654 15.6911 13.5407C15.8235 13.5061 15.9587 13.4841 16.0942 13.4558V13.4555C16.6262 13.3537 17.1685 13.3166 17.7095 13.3454C18.21 13.3552 18.6953 13.5202 19.0982 13.8178C19.4519 14.1423 19.6577 14.5974 19.668 15.0773C19.6917 15.3317 19.6917 15.5878 19.668 15.8425C19.634 16.0908 19.5696 16.3342 19.4758 16.5666C19.0261 17.5502 18.3838 18.4335 17.5867 19.1645C16.9365 19.7938 16.2385 20.3717 15.499 20.893C14.9605 20.6808 14.4107 20.498 13.8523 20.3451C13.2727 20.1742 12.676 20.0688 12.073 20.0302C11.7475 20.0146 11.4213 20.0421 11.1032 20.1122C10.7299 20.192 10.3896 20.383 10.1272 20.6601C9.98141 20.8209 9.87398 21.0126 9.81221 21.2206C9.76216 21.4203 9.75264 21.6278 9.78389 21.8314C9.84786 22.204 10.0173 22.5504 10.2719 22.8295C10.7646 23.3825 11.5063 23.6439 12.2368 23.5224C12.8428 23.3976 13.427 23.1855 13.9719 22.8925C14.5017 22.6203 15.0149 22.3163 15.5086 21.9826L15.6848 21.8598C16.0501 22.0014 16.4184 22.1525 16.7837 22.31L17.3064 22.5304C16.9663 22.8202 16.6294 23.1034 16.3145 23.3995C16.6797 23.1183 17.0535 22.8495 17.4356 22.5934C18.283 22.9806 19.1656 23.2853 20.0711 23.5034C20.677 23.6418 21.3047 23.6557 21.9163 23.5444C22.5518 23.4223 23.1277 23.0895 23.5505 22.5998C23.7627 22.3332 23.896 22.0127 23.9348 21.6741C23.9739 21.3357 23.917 20.9931 23.771 20.6853C23.6177 20.376 23.3767 20.1187 23.0781 19.9453ZM13.569 22.0552C13.1083 22.3013 12.6156 22.4817 12.1046 22.5904C11.6881 22.6646 11.2631 22.5181 10.9806 22.2032C10.8456 22.0608 10.755 21.8826 10.7191 21.6897C10.6869 21.5408 10.7252 21.385 10.8232 21.2679C11.0216 21.0286 11.5443 20.9151 12.048 20.9529C12.5803 20.9822 13.1078 21.0667 13.6225 21.2049C13.9374 21.2866 14.2523 21.3811 14.567 21.4851C14.2584 21.6836 13.9184 21.8819 13.569 22.0552ZM23.0596 22.1968C22.7149 22.5564 22.263 22.795 21.7718 22.877C21.2545 22.9498 20.7279 22.9187 20.2225 22.7857C19.5374 22.5975 18.869 22.3543 18.223 22.0581C18.5191 21.8599 18.8338 21.6677 19.13 21.4883C19.618 21.1956 20.1124 20.9185 20.6163 20.6665H20.6161C21.0748 20.3887 21.5951 20.2286 22.1307 20.2005C22.3736 20.2 22.6124 20.263 22.8236 20.3831C23.1229 20.5716 23.3226 20.8836 23.3682 21.2344C23.4139 21.5852 23.3006 21.9381 23.0596 22.1968Z" fill="#E61C5D"/>
<path d="M20.9174 29.0306C20.4581 29.3616 19.946 29.8548 20.0096 29.9628C20.0731 30.0707 20.6863 29.7553 21.1459 29.422C21.1874 29.3908 21.2286 29.362 21.2678 29.3329C21.3401 29.3544 21.491 29.3981 21.6834 29.453C21.6813 29.4528 21.6771 29.4524 21.675 29.4522L21.551 29.5411C21.5351 29.5512 21.5325 29.5769 21.5456 29.5948L21.6217 29.7253C21.6325 29.7453 21.6531 29.7521 21.6692 29.7395L21.7932 29.6506C21.7932 29.6506 21.8031 29.6375 21.8061 29.6283L21.9507 29.525C22.1141 29.5723 22.292 29.6234 22.4677 29.6743L22.3461 29.7611C22.3302 29.7713 22.3276 29.797 22.3406 29.8148L22.4168 29.9453C22.4275 29.9653 22.4481 29.9721 22.4643 29.9596L22.5883 29.8707C22.5883 29.8707 22.5981 29.8575 22.6012 29.8484L22.7411 29.7493C23.1879 29.8773 23.5626 29.9815 23.5757 29.9781C23.6085 29.9696 23.7864 29.8319 23.7864 29.8319C23.83 29.8009 23.8607 29.771 23.8591 29.7661C23.8554 29.761 23.8055 29.7913 23.7642 29.8202L22.9622 29.3964C22.9947 29.3691 23.0144 29.3428 23.0091 29.3328C23.0018 29.3202 22.9618 29.3374 22.9203 29.3686L22.9156 29.3728L22.7581 29.2884C22.7884 29.2631 22.8081 29.2368 22.8027 29.2268C22.7955 29.2143 22.7554 29.2315 22.7139 29.2627L22.5703 29.189L22.487 29.1074C22.524 29.0781 22.5505 29.0478 22.5452 29.0378C22.5379 29.0253 22.4979 29.0424 22.4564 29.0736L22.4543 29.0734L22.2894 28.915C22.3265 28.8858 22.353 28.8554 22.3455 28.8452C22.3382 28.8327 22.2982 28.8498 22.2567 28.881L22.1056 28.7335C22.4117 28.5073 22.5317 28.4156 22.7593 28.2499C22.989 28.0844 23.2007 27.9077 23.3723 27.7481C23.6166 27.8154 24.0983 27.9564 24.0983 27.9564L24.2342 27.8758L23.7477 27.3637C23.7817 27.3223 23.8084 27.2896 23.8239 27.2629C23.9146 27.1871 23.9688 27.1359 23.9634 27.126C23.958 27.116 23.8952 27.1474 23.7996 27.2085C23.7713 27.215 23.7312 27.2322 23.6802 27.253L23.461 26.5391L23.3377 26.6422C23.3377 26.6422 23.2484 27.228 23.2043 27.495C23.0103 27.6027 22.7886 27.7313 22.5568 27.8753C22.2721 28.0801 22.1441 28.1662 21.8805 28.3518L21.8234 28.1383C21.8672 28.105 21.8961 28.0725 21.8888 28.06C21.8834 28.05 21.8481 28.0629 21.8071 28.0895L21.7437 27.8541L21.7458 27.8543C21.7896 27.821 21.8187 27.7862 21.8112 27.776C21.8059 27.766 21.7684 27.7787 21.7295 27.8054L21.6966 27.6888L21.6934 27.5114C21.7369 27.4804 21.766 27.4456 21.7588 27.4331C21.7534 27.4231 21.7248 27.432 21.6906 27.4545L21.6871 27.2582L21.6914 27.2586C21.7352 27.2253 21.7643 27.1905 21.757 27.178C21.7517 27.168 21.7207 27.179 21.6865 27.2015L21.6722 26.211C21.7116 26.1796 21.758 26.1419 21.7563 26.137C21.7526 26.1319 21.7165 26.1518 21.6729 26.1828C21.6729 26.1828 21.4857 26.3078 21.4678 26.3366C21.4603 26.3477 21.3916 26.7726 21.3104 27.279L21.1705 27.378C21.1705 27.378 21.1536 27.3763 21.1468 27.3804L21.0228 27.4693C21.0069 27.4794 21.0043 27.5051 21.0174 27.523L21.0935 27.6535C21.1043 27.6734 21.1249 27.6803 21.141 27.6677L21.2627 27.581C21.2317 27.7808 21.2008 27.9807 21.171 28.1688L21.0264 28.2722C21.0264 28.2722 21.0096 28.2704 21.0028 28.2745L20.8788 28.3634C20.8628 28.3736 20.8602 28.3993 20.8733 28.4171L20.9495 28.5476C20.9602 28.5676 20.9808 28.5744 20.997 28.5619L21.121 28.473C21.121 28.473 21.1214 28.4683 21.1261 28.464C21.0914 28.68 21.0657 28.8497 21.0529 28.9334C21.0138 28.9625 20.9725 28.9913 20.9289 29.0223L20.9174 29.0306Z" fill="#E61C5D"/>
</svg>
