<svg width="184" height="333" viewBox="0 0 184 333" fill="none" xmlns="http://www.w3.org/2000/svg">
<path d="M20.5584 18.6804C16.1346 16.9146 10.4096 15.5577 10.0192 16.5057C9.64746 17.4722 14.7405 20.3905 19.1644 22.1563C19.5733 22.3236 19.9636 22.4723 20.3539 22.621C20.577 23.2344 21.0603 24.5355 21.6737 26.1712C21.6551 26.1712 21.6551 26.1341 21.6179 26.1155L20.4283 25.6508C20.2796 25.595 20.1123 25.688 20.038 25.8552L19.5733 27.0077C19.4989 27.175 19.5733 27.3608 19.722 27.4166L20.9116 27.8813C20.9116 27.8813 21.0417 27.8813 21.116 27.8813L22.4916 28.4389C23.012 29.833 23.5696 31.3572 24.1272 32.8442L22.9562 32.3795C22.8075 32.3237 22.6402 32.4167 22.5659 32.584L22.1012 33.7364C22.0268 33.9037 22.1012 34.0896 22.2499 34.1453L23.4395 34.61C23.4395 34.61 23.5696 34.61 23.644 34.61L24.9823 35.1491C26.4135 38.9595 27.6217 42.138 27.6961 42.2124C27.9005 42.4168 29.685 43.0488 29.685 43.0488C30.0939 43.2161 30.447 43.309 30.4656 43.2533C30.4656 43.2161 30.0381 42.993 29.6477 42.8258L28.3466 35.0933C28.6812 35.2048 28.96 35.2234 28.9786 35.1491C29.0158 35.0375 28.7184 34.8331 28.3094 34.6658H28.2723L28.0121 33.123C28.3281 33.2159 28.5883 33.2531 28.6255 33.1602C28.6626 33.0487 28.3653 32.8442 27.9563 32.6769L27.7147 31.2828L27.8262 30.3163C28.1979 30.4464 28.5325 30.5022 28.5697 30.3906C28.6069 30.2791 28.3094 30.0746 27.9005 29.9074H27.882L28.0864 27.9557C28.4581 28.0858 28.7742 28.1229 28.8113 28.03C28.8485 27.9185 28.5511 27.714 28.1422 27.5467H28.1236L28.3094 25.7623C31.302 26.9147 32.4917 27.3423 34.685 28.2159C36.897 29.0895 39.0903 29.7772 40.9862 30.2791C41.7669 32.3423 43.2911 36.4874 43.2911 36.4874L44.4993 37.0822L45.3357 31.1899C45.7632 31.2457 46.1164 31.2642 46.3766 31.2642C47.3246 31.5616 47.9194 31.7104 47.9566 31.636C47.9938 31.5431 47.4733 31.2457 46.6183 30.8367C46.4324 30.6694 46.135 30.4464 45.7261 30.1862L49.1834 25.279L47.9008 24.8887C47.9008 24.8887 43.7 26.9891 41.7855 27.9185C40.1312 27.0263 38.1795 26.0411 36.1163 25.0374C33.3653 23.9407 32.1757 23.4389 29.6664 22.3979L30.7445 20.9853C31.1534 21.1526 31.5251 21.2083 31.5623 21.0968C31.5994 21.0039 31.3393 20.818 30.9675 20.6507L32.1571 19.0894H32.1757C32.5846 19.2566 32.9564 19.3124 32.9936 19.2009C33.0307 19.1079 32.7705 18.9035 32.3987 18.7548L32.9936 17.9741L34.1274 17.1191C34.5363 17.2864 34.9081 17.3421 34.9452 17.2306C34.9824 17.1377 34.7779 16.9889 34.4805 16.8402L35.7259 15.9109H35.7631C36.172 16.0967 36.5438 16.1339 36.581 16.041C36.6181 15.948 36.3951 15.7808 36.0791 15.6321L42.3431 10.9108C42.7335 11.0595 43.2167 11.2082 43.2353 11.171C43.2539 11.1153 42.9379 10.948 42.529 10.7807C42.529 10.7807 40.8189 10 40.5215 10C40.41 10 37.3431 11.487 33.6999 13.2714L32.3616 12.7324C32.3616 12.7324 32.2872 12.6023 32.2315 12.5837L31.0418 12.119C30.8931 12.0632 30.7258 12.1562 30.6515 12.3235L30.1868 13.4759C30.1125 13.6432 30.1868 13.8291 30.3355 13.8848L31.5065 14.3495C30.0753 15.0558 28.6254 15.7622 27.2871 16.4313L25.9117 15.8737C25.9117 15.8737 25.8373 15.7436 25.7815 15.725L24.5919 15.2603C24.4432 15.2045 24.2759 15.2975 24.2016 15.4648L23.7369 16.6172C23.6625 16.7845 23.7369 16.9704 23.8856 17.0261L25.0752 17.4908C25.0752 17.4908 25.131 17.4908 25.1496 17.4908C23.6068 18.2529 22.38 18.8663 21.7852 19.1637C21.3949 19.015 21.0045 18.8477 20.5956 18.6804H20.5584Z" fill="#E61C5D"/>
<path d="M82.66 92.1073C81.2102 90.9477 79.7418 89.7881 78.2548 88.65C77.8458 88.3279 77.7157 87.6837 77.9945 87.2112C78.2733 86.7388 78.831 86.5885 79.2399 86.9106C80.7455 88.0487 82.2325 89.2083 83.6823 90.3894C84.0912 90.7115 84.2028 91.3772 83.9054 91.8496C83.7381 92.1502 83.4407 92.3005 83.1619 92.3005C82.976 92.3005 82.8087 92.2361 82.6414 92.1073H82.66ZM74.7417 83.5392C73.2361 82.4441 71.7119 81.3489 70.1691 80.2752C69.7416 79.9746 69.184 80.1249 68.9238 80.6403C68.6636 81.1342 68.8122 81.7784 69.2398 82.079C70.7639 83.1527 72.2881 84.2264 73.7751 85.3215C73.9238 85.4289 74.0911 85.4933 74.2584 85.4933C74.5558 85.4933 74.8532 85.3215 75.0205 84.9994C75.2808 84.5055 75.1692 83.8613 74.7417 83.5607V83.5392ZM108.311 115.363C108.553 115.363 108.794 115.256 108.98 115.02C109.315 114.59 109.296 113.925 108.924 113.538C107.605 112.164 106.266 110.789 104.909 109.415C104.538 109.029 103.961 109.093 103.627 109.523C103.292 109.952 103.348 110.618 103.72 111.004C105.077 112.357 106.396 113.731 107.698 115.106C107.865 115.299 108.088 115.385 108.311 115.385V115.363ZM101.378 304.59C99.9094 303.517 98.4224 302.4 96.9168 301.241C96.5078 300.918 95.9502 301.047 95.6528 301.52C95.3739 301.992 95.4855 302.636 95.8944 302.98C97.4186 304.161 98.9242 305.299 100.393 306.373C100.541 306.48 100.709 306.523 100.876 306.523C101.173 306.523 101.471 306.351 101.638 306.029C101.898 305.535 101.768 304.891 101.359 304.59H101.378ZM65.5408 77.1615C63.9981 76.1308 62.4367 75.1215 60.8567 74.1337C60.4106 73.8545 59.8716 74.0478 59.63 74.5417C59.3883 75.0571 59.5556 75.6798 59.9831 75.959C61.5445 76.9468 63.1058 77.956 64.63 78.9653C64.7787 79.0512 64.9274 79.0941 65.0761 79.0941C65.3921 79.0941 65.6895 78.9009 65.8568 78.5788C66.0984 78.0849 65.9497 77.4407 65.5222 77.1615H65.5408ZM100.225 107.268C100.486 107.268 100.746 107.139 100.913 106.881C101.229 106.43 101.173 105.786 100.802 105.421C99.4261 104.111 98.0506 102.801 96.6379 101.513C96.2476 101.169 95.6714 101.234 95.374 101.685C95.058 102.136 95.1323 102.801 95.5227 103.145C96.9168 104.433 98.2922 105.722 99.6677 107.032C99.835 107.203 100.039 107.268 100.244 107.268H100.225ZM88.2735 294.047C87.8831 293.703 87.3069 293.789 87.0095 294.24C86.7121 294.691 86.7865 295.357 87.1768 295.7C88.6266 296.989 90.0765 298.213 91.4891 299.394C91.6564 299.523 91.8423 299.587 92.0096 299.587C92.2884 299.587 92.5673 299.437 92.7345 299.158C93.0319 298.685 92.939 298.041 92.53 297.697C91.1174 296.516 89.6862 295.292 88.2549 294.025L88.2735 294.047ZM91.2847 99.3654C91.452 99.5157 91.6378 99.5801 91.8237 99.5801C92.1025 99.5801 92.3628 99.4298 92.5487 99.1721C92.8461 98.7212 92.7717 98.0555 92.3814 97.7119C90.9687 96.4664 89.5189 95.2424 88.069 94.0184C87.6787 93.6749 87.1025 93.7822 86.8051 94.2546C86.5077 94.7271 86.6006 95.3713 87.0095 95.7149C88.4594 96.9174 89.8906 98.1414 91.2847 99.3869V99.3654ZM79.9462 286.338C79.5559 285.973 78.9983 286.016 78.6637 286.467C78.3477 286.918 78.3849 287.562 78.7752 287.948C80.1693 289.301 81.5634 290.611 82.9203 291.878C83.0876 292.028 83.292 292.114 83.4779 292.114C83.7381 292.114 83.9983 291.985 84.1842 291.728C84.5002 291.277 84.4258 290.611 84.0355 290.267C82.6786 289 81.3031 287.712 79.909 286.359L79.9462 286.338ZM171.583 233.62C172.011 235.638 172.401 237.635 172.754 239.611C172.847 240.105 173.219 240.448 173.646 240.448C173.702 240.448 173.777 240.448 173.832 240.448C174.316 240.341 174.632 239.783 174.539 239.224C174.186 237.227 173.795 235.187 173.368 233.147C173.256 232.589 172.773 232.245 172.271 232.374C171.788 232.503 171.49 233.083 171.602 233.641L171.583 233.62ZM173.721 245.666C174.018 247.706 174.26 249.746 174.483 251.743C174.539 252.28 174.929 252.667 175.375 252.667C175.412 252.667 175.449 252.667 175.487 252.667C175.989 252.602 176.342 252.087 176.267 251.507C176.063 249.467 175.803 247.427 175.505 245.344C175.431 244.786 174.948 244.378 174.464 244.485C173.962 244.571 173.646 245.108 173.721 245.688V245.666ZM56.0983 71.1918C54.5183 70.2469 52.9198 69.3021 51.3027 68.3787C50.8566 68.121 50.3176 68.3358 50.0945 68.8511C49.8715 69.3665 50.0573 69.9893 50.5034 70.2469C52.102 71.1703 53.7005 72.0937 55.2619 73.0385C55.392 73.1244 55.5407 73.1459 55.6708 73.1459C55.9868 73.1459 56.3028 72.9312 56.4701 72.5876C56.6931 72.0722 56.5258 71.4495 56.0797 71.1703L56.0983 71.1918ZM168.721 221.766C169.26 223.742 169.762 225.717 170.245 227.671C170.356 228.122 170.728 228.423 171.119 228.423C171.193 228.423 171.286 228.423 171.36 228.38C171.843 228.23 172.122 227.65 171.992 227.092C171.509 225.116 171.007 223.14 170.449 221.143C170.301 220.585 169.799 220.284 169.316 220.456C168.832 220.628 168.572 221.208 168.721 221.766ZM175.003 257.842C175.133 259.903 175.226 261.965 175.282 263.962C175.282 264.52 175.691 264.971 176.193 264.971H176.212C176.713 264.971 177.104 264.477 177.085 263.898C177.029 261.858 176.936 259.775 176.806 257.67C176.769 257.09 176.323 256.661 175.84 256.704C175.338 256.747 174.966 257.241 175.003 257.821V257.842ZM167.029 215.947C167.159 216.376 167.513 216.655 167.884 216.655C167.977 216.655 168.089 216.655 168.182 216.591C168.646 216.398 168.907 215.796 168.739 215.259C168.163 213.327 167.531 211.373 166.881 209.419C166.695 208.882 166.174 208.603 165.71 208.817C165.245 209.032 165.003 209.633 165.189 210.17C165.84 212.103 166.434 214.035 167.029 215.947ZM148.572 171.668C148.739 171.99 149.036 172.162 149.334 172.162C149.501 172.162 149.668 172.119 149.817 172.011C150.245 171.711 150.375 171.066 150.115 170.573C149.185 168.833 148.219 167.072 147.233 165.333C146.955 164.839 146.397 164.71 145.988 165.032C145.561 165.354 145.449 165.999 145.728 166.471C146.713 168.21 147.661 169.928 148.59 171.668H148.572ZM158.851 193.249C158.999 193.614 159.334 193.829 159.669 193.829C159.799 193.829 159.929 193.786 160.059 193.721C160.505 193.464 160.691 192.841 160.486 192.325C159.706 190.479 158.906 188.632 158.089 186.764C157.866 186.248 157.308 186.055 156.862 186.313C156.416 186.57 156.248 187.215 156.471 187.73C157.289 189.577 158.089 191.402 158.851 193.227V193.249ZM140.728 320.889C139.036 320.889 137.289 320.739 135.505 320.481C135.021 320.417 134.557 320.825 134.501 321.383C134.445 321.963 134.798 322.478 135.282 322.543C137.14 322.8 138.962 322.951 140.728 322.951C141.23 322.951 141.639 322.478 141.639 321.92C141.639 321.34 141.248 320.868 140.746 320.868L140.728 320.889ZM110.597 310.732C109.073 309.809 107.512 308.821 105.95 307.769C105.523 307.489 104.965 307.661 104.724 308.155C104.482 308.649 104.631 309.293 105.058 309.572C106.657 310.646 108.237 311.634 109.779 312.579C109.909 312.665 110.058 312.686 110.188 312.686C110.504 312.686 110.82 312.471 110.988 312.128C111.211 311.612 111.043 310.99 110.597 310.71V310.732ZM160.17 313.76C158.795 314.984 157.345 316.057 155.802 316.981C155.356 317.239 155.189 317.883 155.412 318.398C155.579 318.763 155.895 318.956 156.211 318.956C156.36 318.956 156.49 318.913 156.62 318.849C158.237 317.883 159.817 316.723 161.267 315.435C161.657 315.091 161.732 314.425 161.434 313.974C161.118 313.524 160.561 313.438 160.17 313.781V313.76ZM164.408 205.038C164.873 204.823 165.096 204.2 164.892 203.664C164.204 201.774 163.498 199.863 162.754 197.973C162.55 197.458 162.011 197.221 161.565 197.458C161.1 197.694 160.914 198.317 161.118 198.832C161.862 200.722 162.568 202.59 163.237 204.48C163.386 204.888 163.721 205.124 164.074 205.124C164.185 205.124 164.315 205.102 164.427 205.038H164.408ZM155.542 181.309C154.687 179.506 153.795 177.702 152.884 175.898C152.642 175.404 152.085 175.232 151.657 175.533C151.23 175.834 151.081 176.456 151.341 176.95C152.252 178.733 153.126 180.515 153.962 182.319C154.129 182.662 154.427 182.856 154.761 182.856C154.91 182.856 155.059 182.813 155.189 182.727C155.635 182.448 155.784 181.803 155.542 181.309ZM172.922 293.446C172.438 293.252 171.936 293.531 171.769 294.09C171.174 296.044 170.505 297.912 169.762 299.694C169.539 300.21 169.724 300.833 170.189 301.09C170.319 301.155 170.449 301.198 170.579 301.198C170.914 301.198 171.23 300.983 171.397 300.618C172.178 298.771 172.866 296.817 173.479 294.798C173.647 294.262 173.405 293.66 172.922 293.467V293.446ZM176.23 269.094C175.691 269.073 175.319 269.524 175.301 270.104C175.245 272.186 175.152 274.227 174.985 276.202C174.948 276.782 175.301 277.276 175.803 277.34C175.821 277.34 175.858 277.34 175.877 277.34C176.342 277.34 176.732 276.932 176.769 276.395C176.936 274.377 177.029 272.272 177.085 270.168C177.085 269.588 176.713 269.116 176.212 269.094H176.23ZM151.025 319.214C149.408 319.794 147.698 320.223 145.951 320.503C145.449 320.588 145.114 321.104 145.17 321.684C145.226 322.199 145.616 322.585 146.062 322.585C146.1 322.585 146.137 322.585 146.193 322.585C148.033 322.285 149.854 321.834 151.564 321.233C152.048 321.061 152.308 320.481 152.159 319.923C152.01 319.364 151.509 319.064 151.025 319.236V319.214ZM175.375 281.399C174.892 281.313 174.409 281.699 174.334 282.258C174.055 284.298 173.684 286.316 173.275 288.227C173.145 288.786 173.442 289.344 173.925 289.494C174 289.494 174.074 289.516 174.148 289.516C174.557 289.516 174.929 289.194 175.022 288.721C175.449 286.746 175.803 284.684 176.1 282.58C176.174 282 175.84 281.463 175.357 281.377L175.375 281.399ZM168.442 304.612C168.033 304.29 167.457 304.419 167.197 304.913C166.23 306.609 165.152 308.22 164.018 309.658C163.683 310.088 163.702 310.753 164.074 311.14C164.241 311.312 164.464 311.419 164.687 311.419C164.929 311.419 165.17 311.312 165.356 311.076C166.565 309.551 167.698 307.854 168.721 306.072C169 305.6 168.888 304.934 168.461 304.633L168.442 304.612ZM124.185 131.039C122.977 129.515 121.75 128.011 120.504 126.508C120.151 126.1 119.594 126.079 119.222 126.487C118.869 126.895 118.85 127.539 119.203 127.968C120.449 129.45 121.657 130.953 122.846 132.457C123.032 132.671 123.274 132.8 123.516 132.8C123.739 132.8 123.962 132.714 124.129 132.521C124.501 132.134 124.519 131.469 124.185 131.039ZM120.263 315.778C118.664 315.048 117.029 314.254 115.393 313.395C114.947 313.158 114.408 313.395 114.185 313.91C113.98 314.425 114.185 315.048 114.631 315.284C116.304 316.165 117.977 316.981 119.612 317.732C119.724 317.775 119.835 317.797 119.947 317.797C120.3 317.797 120.653 317.539 120.783 317.131C120.969 316.594 120.728 315.993 120.263 315.778ZM116.099 123.867C116.322 123.867 116.564 123.76 116.731 123.566C117.084 123.158 117.084 122.493 116.731 122.085C115.467 120.624 114.185 119.186 112.884 117.747C112.53 117.339 111.954 117.36 111.601 117.79C111.248 118.198 111.266 118.864 111.638 119.272C112.939 120.689 114.203 122.128 115.467 123.566C115.634 123.76 115.876 123.867 116.099 123.867ZM141.174 155.068C140.876 154.596 140.319 154.489 139.91 154.832C139.501 155.176 139.408 155.82 139.705 156.292C140.746 157.967 141.787 159.642 142.772 161.317C142.94 161.618 143.237 161.768 143.516 161.768C143.702 161.768 143.869 161.704 144.036 161.575C144.445 161.253 144.557 160.587 144.259 160.115C143.256 158.418 142.215 156.722 141.155 155.047L141.174 155.068ZM137.252 151.761C137.438 151.761 137.642 151.697 137.791 151.547C138.181 151.203 138.274 150.537 137.958 150.087C136.88 148.454 135.783 146.822 134.65 145.19C134.334 144.74 133.776 144.675 133.386 145.019C132.995 145.384 132.94 146.028 133.237 146.479C134.352 148.089 135.449 149.721 136.508 151.332C136.694 151.611 136.955 151.74 137.233 151.74L137.252 151.761ZM130.356 319.407C128.702 318.978 126.992 318.441 125.263 317.818C124.78 317.647 124.278 317.947 124.129 318.505C123.98 319.064 124.241 319.644 124.724 319.815C126.49 320.46 128.255 320.996 129.966 321.447C130.04 321.447 130.096 321.469 130.17 321.469C130.579 321.469 130.951 321.147 131.044 320.653C131.155 320.095 130.839 319.536 130.356 319.407ZM127.772 135.656C127.438 135.227 126.861 135.184 126.49 135.57C126.118 135.957 126.081 136.601 126.415 137.052C127.586 138.598 128.757 140.166 129.891 141.733C130.077 141.991 130.319 142.098 130.579 142.098C130.783 142.098 130.988 142.012 131.155 141.862C131.545 141.497 131.583 140.831 131.267 140.38C130.133 138.791 128.962 137.224 127.772 135.656Z" fill="#E61C5D"/>
</svg>
