<svg width="194" height="112" viewBox="0 0 194 112" fill="none" xmlns="http://www.w3.org/2000/svg">
<g id="ilus_mezquita">
<path id="Vector" fill-rule="evenodd" clip-rule="evenodd" d="M97.3323 5.37374V14.2488H98.4567V15.8762H98.0819C129.956 36.0033 112.081 42.252 115.831 46.252C109.707 46.1252 103.581 46.1252 97.3323 46.252H78.579C80.9545 41.8758 62.4562 36.1259 95.4556 15.8762H95.0794V14.2488H96.2066V5.87398C95.9572 5.87398 95.7078 5.87398 95.4556 5.87398C94.0804 5.87398 92.8321 4.99895 92.3305 3.6238C92.9561 4.25079 93.707 4.49882 94.582 4.49882C96.4559 4.49882 98.0819 2.99968 98.0819 1.12294C98.0819 0.745338 97.9565 0.247978 97.8325 0C98.5807 0.622763 98.9554 1.49628 98.9554 2.37548C98.9554 3.62382 98.3299 4.74816 97.3323 5.37374ZM35.0786 54.0014C35.452 53.2532 32.4537 52.374 37.9515 49.0009C43.2027 52.374 40.3284 53.3786 40.9526 54.0014C38.9519 54.0014 37.0793 54.0014 35.0786 54.0014ZM34.8292 59.7513H40.8272V56.4981H34.8292V59.7513ZM35.9536 59.0032H37.0794V57.1236H35.9536V59.0032ZM38.7025 59.0032H39.7029V57.1236H38.7025V59.0032ZM37.3288 59.0032H38.3277V57.1236H37.3288V59.0032ZM34.0768 56.1261H41.705V55.5019H34.0768V56.1261ZM34.0768 55.0031H41.705V54.3761H34.0768V55.0031ZM34.0768 60.7489H41.705V60.2501H34.0768V60.7489ZM34.0768 61.4999H41.705V61.0011H34.0768V61.4999ZM34.7038 61.6253H40.9526V77.1281H34.7038V61.6253ZM40.9526 78.1299V91.5052H34.7038V78.1299H40.9526ZM40.9526 92.5027V100.756H48.3271V62.5045L60.7035 60.0022V100.758H61.2023V53.2547H62.8296V52.7517H77.3307V48.3754H116.332V52.002V52.7502H131.331V53.2532H132.582V100.756H133.331V59.3752L145.332 62.7539V100.756H153.457V92.5027H159.582V100.756H170.707V87.3797H180.709V100.756H193.456V104.128H0.451904V100.756H13.5778V87.3797H23.7026V100.756H34.7038V92.5027H40.9526ZM23.2025 24.747C22.5769 23.6255 27.4533 22.2518 18.5768 16.878C9.95253 22.125 14.7022 23.7495 13.7018 24.747C16.8269 24.747 20.0774 24.747 23.2025 24.747ZM23.4547 34.1237H13.8272V28.8711H23.4547V34.1237ZM21.7019 33.0008H20.0774V30.0011H21.7019V33.0008ZM17.2017 33.0008H15.5771V30.0011H17.2017V33.0008ZM19.4532 33.0008H17.8273V30.0011H19.4532V33.0008ZM24.951 28.6245H12.4521V27.2508H24.951V28.6245ZM24.951 26.6266H12.4521V25.3782H24.951V26.6266ZM24.951 35.751H12.4521V34.5027H24.951V35.751ZM24.951 37.0008H12.4521V36.1258H24.951V37.0008ZM193.456 112H0.451904V105.254H193.456V112ZM23.704 37.2516H13.5792V62.3748H23.704V37.2516ZM171.085 24.747C171.833 23.6255 166.834 22.2518 175.834 16.878C184.456 22.125 179.707 23.7495 180.709 24.747C177.46 24.747 174.332 24.747 171.085 24.747ZM180.585 34.1237V28.8711H181.96V27.2508H169.457V28.8711H170.834V34.1237H169.457V35.6256V35.751V37.2502H170.707V62.3735H180.709V37.2502H181.96V35.751V35.6256V34.1237H180.585ZM172.709 33.0008H174.332V30.0011H172.709V33.0008ZM177.085 33.0008H178.833V30.0011H177.085V33.0008ZM174.956 33.0008H176.585V30.0011H174.956V33.0008ZM169.457 26.9986H181.96V25.3782H169.457V26.9986ZM180.709 64.0036V85.6256H170.707V64.0036H180.709ZM79.7062 100.756H114.082V55.3765H79.7062V100.756ZM159.334 54.0014C158.959 53.2532 161.957 52.374 156.46 49.0009C151.083 52.374 154.083 53.3786 153.46 54.0014C155.456 54.0014 157.332 54.0014 159.334 54.0014ZM159.583 59.7513H153.584V56.4981H159.583V59.7513ZM158.332 59.0032H157.332V57.1236H158.332V59.0032ZM155.707 59.0032H154.71V57.1236H155.707V59.0032ZM156.958 59.0032H155.958V57.1236H156.958V59.0032ZM160.331 56.2515H152.709V55.5019H160.331V56.2515ZM160.331 55.0031H152.709V54.3761H160.331V55.0031ZM160.331 60.7489H152.709V60.1261H160.331V60.7489ZM160.331 61.6253H159.583V77.1281H153.458V61.6253H152.709V61.0025H160.331V61.6253ZM153.458 78.1299V91.5052H159.583V78.1299H153.458ZM13.5792 64.0036V85.6256H23.704V64.0036H13.5792ZM57.329 87.7531V97.003L50.9563 97.1284V88.5027C50.9563 86.8781 53.9545 84.2519 54.0799 84.2519C54.2039 84.2519 57.329 86.1286 57.329 87.7531ZM57.329 72.2531V81.379L50.9563 82.1285V73.0012C50.9563 71.2485 53.9545 68.6264 54.0799 68.6264C54.2039 68.501 57.329 70.3764 57.329 72.2531ZM136.957 87.7531V97.003L143.332 97.1284V88.5027C143.332 86.8781 140.209 84.2519 140.085 84.2519C139.958 84.2519 136.957 86.1286 136.957 87.7531ZM136.957 72.2531V81.379L143.332 82.1285V73.0012C143.332 71.2485 140.209 68.6264 140.085 68.6264C139.958 68.501 136.957 70.3764 136.957 72.2531ZM118.205 52.002C118.959 50.6269 112.955 49.0023 123.958 42.3746H123.834H123.459V41.8758H123.834V39.6257C123.71 39.6257 123.583 39.6257 123.459 39.6257C123.083 39.6257 122.582 39.2509 122.457 38.8733C122.582 38.9987 122.957 39.1242 123.211 39.1242C123.834 39.1242 124.332 38.6254 124.332 38.1224C124.332 38.0012 124.332 37.8758 124.21 37.7504C124.459 37.8758 124.583 38.1223 124.583 38.4985C124.583 38.8733 124.459 39.1227 124.21 39.3778V41.8744H124.459V42.3732H124.21H123.959C134.459 48.753 128.959 50.7509 129.958 52.0007L118.205 52.002ZM100.081 74.251V81.379H107.333V74.003C107.333 69.7536 97.4577 64.0036 96.9561 64.0036C96.4559 64.0036 86.5805 69.7536 86.5805 74.003V81.379H93.707V74.251C93.707 73.0013 96.7067 71.2485 96.9561 71.2485C97.0787 71.2499 100.081 73.0027 100.081 74.251ZM100.081 90.1244V97.1284H93.7057V90.1244C93.7057 88.7493 96.7054 87.0036 96.9547 87.0036C97.0787 87.0036 100.081 88.7507 100.081 90.1244ZM107.333 83.8799H86.5805V97.1284H83.5822V59.1286H110.207V97.1284H107.333V83.8799ZM67.0805 75.8756H69.5814V80.6252H67.0805V75.8756ZM67.0805 92.376H69.5814V97.1284H67.0805V92.376ZM124.456 92.376H126.956V97.1284H124.456V92.376ZM124.456 75.8756H126.956V80.6252H124.456V75.8756ZM64.8303 55.7499H67.0805V59.1286H64.8303V55.7499ZM127.332 55.7499H129.706V59.1286H127.332V55.7499ZM123.581 55.7499H125.831V59.1286H123.581V55.7499ZM119.705 55.7499H121.957V59.1286H119.705V55.7499ZM72.5796 55.7499H74.8311V59.1286H72.5796V55.7499ZM68.705 55.7499H70.9551V59.1286H68.705V55.7499ZM121.083 83.5023H124.58C123.832 83.8799 123.081 84.5027 122.706 84.7507C121.957 85.3748 120.958 86.5048 120.958 87.6278V97.6285H130.584V87.6278C130.584 86.5048 129.458 85.3748 128.707 84.7507C128.458 84.5027 127.581 83.8799 126.832 83.5023H130.584V82.5048H121.083V83.5023ZM63.5792 66.5003H67.83C67.0804 66.8779 65.7053 68.0022 65.3305 68.253C64.5781 68.8786 63.4538 70.0002 63.4538 71.1274V81.1254H73.0798V71.1274C73.0798 70.0002 71.9555 68.8786 71.2045 68.253C70.8297 67.8768 69.5813 66.8765 68.705 66.5003H73.0812V65.5028H63.5806V66.5003H63.5792ZM63.5792 83.5023H67.2044C66.4534 83.8799 65.5799 84.5027 65.3305 84.7507C64.5781 85.3748 63.4538 86.5048 63.4538 87.6278V97.6285H73.0798V87.6278C73.0798 86.5048 72.0809 85.3748 71.2045 84.7507C70.9551 84.5027 70.2055 83.8799 69.4559 83.5023H73.0812V82.5048H63.5806V83.5023H63.5792ZM120.832 66.5003H125.333C124.456 66.8779 123.081 67.8768 122.83 68.253C121.957 68.8786 120.958 70.0002 120.958 71.1274V81.1254H130.584V71.1274C130.584 70.0002 129.458 68.8786 128.707 68.253C128.332 68.0022 126.957 66.8765 126.208 66.5003H130.208V65.5028H120.832V66.5003ZM70.3281 37.7504C70.5803 37.8758 70.7043 38.1223 70.7043 38.4985C70.7043 38.8733 70.5803 39.1227 70.3281 39.3778V41.8744H70.7043V42.3732H70.3281H70.0787H69.9547H69.5799V41.8744H69.9547V39.6243C69.8293 39.6243 69.7039 39.6243 69.5799 39.6243C69.2037 39.6243 68.829 39.2495 68.5782 38.8719C68.8304 38.9973 69.0783 39.1227 69.3291 39.1227C69.9547 39.1227 70.4535 38.6239 70.4535 38.1209C70.4549 38.0012 70.4549 37.8758 70.3281 37.7504ZM70.0801 42.3732C80.5797 48.753 75.2059 50.7509 76.0795 52.0007H64.3287C65.2051 50.6269 59.0789 49.0024 70.0801 42.3732Z" fill="#E61C5D"/>
</g>
</svg>
