<svg width="224" height="48" viewBox="0 0 224 48" fill="none" xmlns="http://www.w3.org/2000/svg">
<g id="ilus_avion_login">
<path id="Vector" fill-rule="evenodd" clip-rule="evenodd" d="M44.9427 17.409C43.0116 19.2017 43.5659 18.9949 39.0817 17.685C35.1487 16.4434 37.0122 16.0299 33.4959 18.0294C30.3217 19.8921 25.1487 21.7548 22.7333 23.2024C23.632 25.2035 31.3564 31.7556 33.2192 34.4455C32.528 34.7899 31.9768 35.0666 31.2188 35.4118C30.0457 35.963 30.3217 35.963 28.9426 35.1358C25.9075 33.4107 16.1811 27.8933 14.25 27.0646C11.6993 28.1686 4.93801 31.618 2.59485 31.4796C1.49013 31.4112 -0.304166 31.1352 0.0441197 29.7553C0.938935 26.3758 7.00906 24.5123 10.9413 22.788C12.5257 22.0992 12.1121 22.1684 12.4573 20.4425C12.8732 18.5806 15.4939 5.06117 16.1143 4.37237C16.3903 4.16558 18.5282 3.2692 18.941 3.06163C19.1486 4.30396 19.2861 5.6831 19.3553 6.99306L20.0442 14.6491C20.0442 15.8907 20.2517 17.339 20.4593 18.5114C22.252 17.615 24.0456 16.8563 25.9083 15.9599C35.1495 11.5449 33.4967 14.5115 35.6323 9.54535C36.8762 6.78627 36.8762 5.13035 39.5653 5.5455C39.0817 11.0629 40.5969 14.5123 44.9427 17.409ZM42.9424 10.5809C41.9092 10.9261 42.3228 12.5112 43.4944 12.236L45.0819 11.6848C46.0459 11.4081 45.7715 9.75293 44.5299 10.0973L42.9424 10.5809ZM222.621 47.7581C223.517 48.4477 224.553 47.0677 223.655 46.4466L222.966 45.827C222.001 45.0674 221.035 46.5158 221.863 47.1377L222.621 47.7581ZM217.862 43.9635C218.76 44.6538 219.793 43.2739 218.968 42.5851L217.587 41.5504C216.691 40.86 215.655 42.17 216.553 42.8603L217.862 43.9635ZM212.482 39.7568C213.309 40.4464 214.413 39.1365 213.516 38.4461L212.137 37.4114C211.241 36.7226 210.136 38.0333 211.102 38.7913L212.482 39.7568ZM206.963 35.8246C207.928 36.4466 208.828 34.9982 207.928 34.3771L206.551 33.4107C205.514 32.7911 204.619 34.2395 205.584 34.8606L206.963 35.8246ZM201.308 31.9624C202.273 32.5835 203.17 31.136 202.273 30.514L200.827 29.6177C199.86 28.9973 198.964 30.4456 199.86 31.0652L201.308 31.9624ZM195.582 28.3069C196.48 28.9273 197.445 27.5482 196.48 26.8586L194.962 25.9622C194.134 25.4103 193.101 26.7894 194.134 27.4798L195.582 28.3069ZM189.72 24.8583C190.756 25.4095 191.444 23.8919 190.549 23.4099L189.03 22.5128C187.997 22.0308 187.236 23.5475 188.203 24.0303L189.72 24.8583ZM183.721 21.6156C184.754 22.0992 185.514 20.6493 184.479 20.0981L182.963 19.3393C181.926 18.7882 181.238 20.3741 182.202 20.8584L183.721 21.6156ZM177.579 18.5814C178.615 19.0641 179.374 17.5466 178.34 17.0646L176.821 16.3051C175.856 15.8223 175.029 17.3398 176.062 17.8218L177.579 18.5814ZM171.443 15.7539C172.548 16.1675 173.099 14.5807 172.063 14.1664L170.547 13.4768C169.442 13.064 168.821 14.7191 169.857 15.0635L171.443 15.7539ZM165.098 13.2016C166.131 13.6152 166.82 12.0292 165.718 11.5457L164.13 10.9945C163.098 10.5809 162.477 12.1668 163.511 12.5804L165.098 13.2016ZM158.751 10.8561C159.925 11.2013 160.269 9.47693 159.302 9.20173L157.647 8.64898C156.474 8.30458 156.13 9.95894 157.096 10.3041L158.751 10.8561ZM152.268 8.71739C153.372 9.06179 153.784 7.40743 152.75 7.13145L151.094 6.64867C149.991 6.30271 149.509 7.95862 150.613 8.23461L152.268 8.71739ZM145.715 6.92543C146.682 7.20064 147.302 5.6147 146.128 5.26874L144.475 4.85593C143.231 4.58072 143.025 6.30427 144.06 6.51184L145.715 6.92543ZM139.095 5.40867C140.197 5.61469 140.472 3.88959 139.439 3.68279L137.713 3.3384C136.61 3.1316 136.333 4.78673 137.438 4.99275L139.095 5.40867ZM132.403 4.09793C133.436 4.30473 133.853 2.64804 132.678 2.44203C132.127 2.30364 131.576 2.23523 130.953 2.09685C129.988 1.95925 129.507 3.61438 130.678 3.82118C131.301 3.88959 131.852 4.02874 132.403 4.09793ZM125.642 3.0624C126.818 3.20001 126.955 1.54488 125.85 1.40805L124.196 1.1997C123.023 1.06209 122.883 2.78719 123.989 2.85639L125.642 3.0624ZM118.884 2.37205C119.987 2.51043 120.194 0.786884 119.023 0.648503L117.298 0.510897C116.264 0.441706 115.988 2.09685 117.228 2.23446L118.884 2.37205ZM112.125 1.95924C113.299 1.95924 113.229 0.234915 112.194 0.234915L110.468 0.164949C109.297 0.164949 109.297 1.82086 110.399 1.89083L112.125 1.95924ZM105.295 1.75244C106.4 1.75244 106.47 0.0965345 105.295 0.0273438C104.744 0.0273438 104.123 0.0273438 103.572 0.0273438C102.536 0.0273438 102.399 1.75244 103.572 1.75244C104.193 1.75244 104.744 1.75244 105.295 1.75244ZM98.4684 1.89005C99.7099 1.82086 99.5023 0.0957531 98.3999 0.164166L96.7433 0.234132C95.5709 0.303323 95.7101 2.02687 96.8124 1.95846L98.4684 1.89005ZM91.7079 2.23446C92.8134 2.16604 92.7442 0.441704 91.5703 0.579308L89.8436 0.716914C88.7412 0.786105 88.8796 2.44125 89.9828 2.37128L91.7079 2.23446ZM84.9497 2.92481C85.9829 2.7872 85.9153 1.06209 84.7421 1.1997C84.1894 1.26889 83.5698 1.33808 83.0186 1.40805C81.9823 1.47646 82.0515 3.20078 83.2262 3.0624C83.7766 2.99399 84.3278 2.92481 84.9497 2.92481ZM78.1901 3.75198C79.3616 3.54519 78.948 1.89005 77.9148 2.09685L76.1897 2.37205C75.0874 2.57884 75.431 4.23554 76.465 4.02875L78.1901 3.75198ZM71.4288 4.92434C72.5343 4.71754 72.2575 3.06241 71.1536 3.26999L69.4316 3.54518C68.3945 3.75198 68.6705 5.47709 69.7752 5.26874L71.4288 4.92434ZM64.809 6.30427C65.843 6.09748 65.5678 4.37314 64.3954 4.64913L62.7395 4.99353C61.5687 5.33949 62.1192 6.92543 63.1531 6.65022L64.809 6.30427ZM58.1861 7.88943C59.2916 7.54581 58.8065 5.95987 57.7726 6.23508L56.0482 6.64945C54.9451 6.99385 55.427 8.57979 56.5325 8.30458L58.1861 7.88943ZM51.6348 9.68374C52.6687 9.40853 52.2552 7.75183 51.1505 8.02937L49.4961 8.51137C48.4606 8.78736 48.8073 10.5117 49.9781 10.1665L51.6348 9.68374Z" fill="#E61C5D"/>
</g>
</svg>
