<svg width="237" height="136" viewBox="0 0 237 136" fill="none" xmlns="http://www.w3.org/2000/svg">
<path fill-rule="evenodd" clip-rule="evenodd" d="M159.315 84.0289V85.6955V99.2273V100.336V102.556V124.831V132.326L156.61 136.001H164.172H175.76H185.821L183.601 132.326H183.532V103.111L184.989 99.0874H179.785H181.45H183.463C183.948 93.1896 188.944 88.4712 194.91 88.4712C201.017 88.4712 205.944 93.1896 206.429 99.0874H208.442H210.177H204.903L206.361 103.111V132.326H206.291L203.655 136.001H213.994H225.165H232.798L230.647 132.326V124.831V102.556V100.336V99.2273V85.6955V84.0289V79.2425V78.6168L236.96 73.6904H237.168V73.4816V73.2047H230.647V68.4167V67.1005V65.9891V65.2266H159.315V65.9891V67.1005V68.4167V73.2047H152.723V73.3447V73.6904H153.07L159.315 78.6168V79.2425V84.0289Z" fill="#E61C5D"/>
<path fill-rule="evenodd" clip-rule="evenodd" d="M157.302 94.4387V102.07V102.696V103.319H156.817V116.086V116.919V121.709V122.54V133.99V135.447V136H73.344V135.447V133.99V122.54V121.709V116.919V116.086V103.319H72.4407V102.695V102.07V94.438V93.3978H73.6201V86.2502V68.9018V67.792V52.2494V51.1365V19.2896H71.9558V17.2069H75.286V14.0848H76.4662V13.115H76.8126L78.1312 10.7554L79.5187 8.25665L80.8373 10.7554L82.1567 13.115H82.5039V14.0848H102.21V17.2069H105.609V19.2896H103.736V51.1365V52.2494V53.0824H111.924L113.243 43.1576L113.521 40.5219V26.3668H111.301V24.6306H113.521V22.7567H115.395V24.6306H117.614V26.3668H115.395V40.1747L115.811 43.1568L117.129 53.0816H126.358V52.2487V51.1357V19.2889H124.692V17.2061H128.023V14.084H147.314V13.1142H147.66L148.979 10.7547L150.297 8.25586L151.684 10.7547L152.934 13.1142H153.35V14.084H154.947V17.2061H158.346V19.2889H156.474V51.1357V52.2487V67.7912V68.901V86.2494V93.397H157.305V94.4387H157.302ZM126.355 56.2053H117.057V62.035L117.612 62.9344L120.804 67.9328H126.355V67.7928V56.2053ZM111.922 56.2053H103.734V67.7928V67.9328H108.175L111.298 62.9344L111.922 62.035V56.2053ZM124.897 81.7399C124.62 76.7439 120.734 72.7896 115.808 72.4431C120.734 72.7888 124.62 76.8135 124.897 81.7399ZM78.6169 68.6265H98.7394V67.7936V53.3608H78.6169V67.7936V68.6265ZM85.8325 55.79C85.1396 55.79 84.5147 56.2053 84.5147 56.6894V67.0295H87.1511V56.6894C87.1504 56.2053 86.5958 55.79 85.8325 55.79ZM91.0366 55.79C90.3429 55.79 89.718 56.2053 89.718 56.6894V67.0295H92.3544V56.6894C92.3544 56.2053 91.7999 55.79 91.0366 55.79ZM82.8488 73.6913H80.1428V70.9853H82.8488V73.6913ZM97.0736 73.6913H94.2987V70.9853H97.0736V73.6913ZM138.568 55.79C137.874 55.79 137.25 56.2053 137.25 56.6894V67.0295H139.887V56.6894C139.886 56.2053 139.33 55.79 138.568 55.79ZM143.772 55.79C143.077 55.79 142.523 56.2053 142.523 56.6894V67.0295H145.09V56.6894C145.09 56.2053 144.536 55.79 143.772 55.79ZM135.585 73.6913H132.877V70.9853H135.585V73.6913ZM149.809 73.6913H147.103V70.9853H149.809V73.6913ZM78.4073 133.99H80.2804V115.671C80.2804 110.051 88.5378 105.471 88.5378 105.471C88.5378 105.471 96.7959 110.051 96.7959 115.671V133.99H99.502V122.54V121.709V116.919V116.086V103.319H78.4073V116.086V116.918V121.708V122.539V133.99ZM104.568 133.99H106.718V115.671C106.718 110.051 114.976 105.471 114.976 105.471C114.976 105.471 123.233 110.051 123.233 115.671V133.99H125.593V122.54V121.709V116.919V116.086V103.319H104.568V116.086V116.918V121.708V122.539V133.99ZM130.726 133.99H133.086V115.671C133.086 110.051 141.343 105.471 141.343 105.471C141.343 105.471 149.601 110.051 149.601 115.671V133.99H151.682V122.54V121.709V116.919V116.086V103.319H130.727V116.086V116.918V121.708V122.539L130.726 133.99Z" fill="#E61C5D"/>
<path fill-rule="evenodd" clip-rule="evenodd" d="M13.1821 22.5517L14.2926 32.959L51.1371 28.9351L50.0281 18.527L13.1821 22.5517ZM42.5341 117.544C23.3133 117.544 6.72901 125.177 -0.00012207 136H85.2083C78.3383 125.177 61.8244 117.544 42.5341 117.544ZM58.9088 89.4418L19.7743 93.7449L19.9816 96.1037L59.1872 91.8014L58.9088 89.4418ZM43.7831 2.08116L15.6113 5.13445L15.4032 3.05408L43.5758 0L43.7831 2.08116ZM50.7906 14.9873L11.5858 19.22L11.8635 21.6484L50.9987 17.3461L50.7906 14.9873ZM52.3869 29.8361L13.2517 34.1392L13.4597 36.5691L52.6653 32.2661L52.3869 29.8361ZM53.9831 44.7553L14.8472 49.0576L15.1248 51.4164L54.26 47.1853L53.9831 44.7553ZM55.6482 59.6057L16.4442 63.9065L16.7906 66.3349L55.9259 62.0341L55.6482 59.6057ZM57.2445 74.5226L18.1093 78.8257L18.3869 81.2541L57.5213 76.9494L57.2445 74.5226ZM19.2887 17.6933L17.97 5.76012L41.6315 3.19172L42.9501 15.1249L19.2887 17.6933ZM35.3865 9.0895L35.8041 13.3222L39.8976 12.9069L39.48 8.67342C39.3408 7.4948 38.3014 6.5915 37.1916 6.72993C36.081 6.86914 35.2473 7.91011 35.3865 9.0895ZM21.301 10.6865L21.7867 14.9177L25.8802 14.432L25.3953 10.2009C25.2545 9.01989 24.2151 8.18774 23.1053 8.32617C21.9947 8.39578 21.1618 9.43518 21.301 10.6865ZM28.3093 9.92165L28.7942 14.1551L32.8877 13.6694L32.4028 9.43597C32.3332 8.25735 31.293 7.35403 30.1128 7.56441C29.0023 7.63402 28.2397 8.67343 28.3093 9.92165ZM46.2122 21.0266L46.974 27.8934L49.4032 27.6165L48.6407 20.7474C48.5703 20.1921 48.0158 19.776 47.322 19.8441C46.6275 19.9137 46.1426 20.4009 46.2122 21.0266ZM22.4108 84.5147L23.2437 91.3853L25.6033 91.1069L24.84 84.2378C24.7704 83.6817 24.2159 83.2672 23.5214 83.3353C22.8973 83.4745 22.4108 83.9609 22.4108 84.5147ZM25.8113 84.0978L26.5739 91.0389L29.0015 90.7597L28.2389 83.8913C28.1701 83.3353 27.6141 82.92 26.9211 82.9896C26.2282 83.0584 25.7417 83.6144 25.8113 84.0978ZM29.2111 83.8209L29.9744 90.6228L32.334 90.4132L31.6395 83.4745C31.5699 82.9192 30.9466 82.5711 30.2521 82.6415C29.6279 82.7119 29.1423 83.1984 29.2111 83.8209ZM32.5412 83.4049L33.3061 90.2716L35.7338 89.9948L34.9704 83.128C34.9008 82.5704 34.3455 82.2239 33.6526 82.2239C32.9581 82.3639 32.4732 82.8511 32.5412 83.4049ZM35.9426 82.9888L36.7051 89.926L39.0647 89.6491L38.3718 82.7815C38.3022 82.2247 37.6773 81.8086 37.0524 81.8782C36.3587 81.9478 35.873 82.5008 35.9426 82.9888ZM39.2727 82.7119L40.0361 89.5099L42.4652 89.3018L41.7707 82.3631C41.7011 81.8078 41.0778 81.4621 40.3825 81.531C39.6896 81.6006 39.2031 82.0855 39.2727 82.7119ZM42.6733 82.2943L43.435 89.1634L45.8642 88.8865L45.1017 82.0855C45.0329 81.4621 44.408 81.1149 43.7839 81.1149C43.0886 81.2541 42.6037 81.739 42.6733 82.2943ZM46.073 81.9478L46.7668 88.8162L49.2648 88.5401L48.5007 81.6686C48.4311 81.1149 47.8069 80.6996 47.1132 80.7692C46.4891 80.838 46.0027 81.3918 46.073 81.9478ZM49.4032 81.6006L50.1665 88.4705L52.5957 88.1936L51.8324 81.3229C51.7628 80.7692 51.1379 80.3531 50.5138 80.4235C49.8881 80.4923 49.3336 80.9765 49.4032 81.6006ZM52.8037 81.1853L53.4967 88.0536L55.9939 87.7752L55.2314 80.9765C55.1625 80.3524 54.6065 80.0059 53.9135 80.0059C53.2198 80.1459 52.7341 80.6292 52.8037 81.1853ZM20.8153 69.4578L21.5098 76.3269L24.007 76.0501L23.2445 69.1786C23.1749 68.6256 22.6196 68.2784 21.9259 68.2784C21.2314 68.4168 20.7465 68.9017 20.8153 69.4578ZM24.1462 69.1113L24.9784 75.9796L27.338 75.7028L26.5747 68.8321C26.505 68.2784 25.9505 67.8631 25.2553 67.9327C24.6319 68 24.1462 68.5552 24.1462 69.1113ZM27.546 68.7625L28.3093 75.634L30.7385 75.3563L29.9744 68.416C29.9056 67.9319 29.3511 67.5158 28.6566 67.5854C27.9629 67.6543 27.4764 68.1399 27.546 68.7625ZM30.877 68.3488L31.7083 75.2171L34.0679 75.0106L33.375 68.1399C33.2365 67.5158 32.6812 67.1694 31.9875 67.1694C31.3618 67.307 30.877 67.7927 30.877 68.3488ZM34.2759 68L35.0408 74.8707L37.4684 74.5906L36.7043 67.7231C36.6347 67.1694 36.0802 66.7517 35.3857 66.8198C34.6928 66.8886 34.2071 67.4462 34.2759 68ZM37.6765 67.6543L38.4398 74.5226L40.7986 74.2442L40.1057 67.307C40.0361 66.8198 39.4104 66.4037 38.787 66.4741C38.0925 66.5429 37.6069 67.0286 37.6765 67.6543ZM41.0074 67.239L41.7707 74.1066L44.1999 73.8977L43.435 67.0286C43.435 66.4029 42.8125 66.0564 42.1172 66.0564C41.4235 66.1964 40.9394 66.6821 41.0074 67.239ZM44.408 66.8886L45.1713 73.7593L47.5309 73.4817L46.8364 66.6117C46.7675 66.0564 46.1434 65.6404 45.5185 65.7804C44.824 65.7796 44.3376 66.3349 44.408 66.8886ZM47.8069 66.5429L48.5007 73.4136L50.9987 73.1352L50.2361 66.1964C50.1665 65.7108 49.5416 65.2947 48.8487 65.3643C48.223 65.4339 47.6693 65.9196 47.8069 66.5429ZM51.1379 66.126L51.9012 72.9983L54.3304 72.7879L53.5671 65.9196C53.4975 65.2939 52.8726 64.9482 52.2477 64.9482C51.6244 65.0867 51.0675 65.5723 51.1379 66.126ZM19.1502 54.4009L19.9128 61.27L22.3412 61.0612L21.5786 54.124C21.5098 53.5664 20.9545 53.2199 20.2608 53.2895C19.6351 53.3599 19.0806 53.8456 19.1502 54.4009ZM22.5492 54.0521L23.2445 60.9228L25.7417 60.6451L24.9784 53.7752C24.9088 53.2199 24.2855 52.8039 23.6598 52.8742C22.9669 52.9431 22.4812 53.4968 22.5492 54.0521ZM25.8802 53.7064L26.6427 60.5755L29.0719 60.2987L28.3093 53.4295C28.2397 52.8743 27.6844 52.4582 26.9915 52.5278C26.3658 52.5974 25.8802 53.0831 25.8802 53.7064ZM29.2807 53.2895L30.0432 60.1602L32.4724 59.9514L31.7075 53.0831C31.6387 52.4574 31.0842 52.1117 30.3897 52.1805C29.6975 52.2501 29.2111 52.7343 29.2807 53.2895ZM32.6116 52.9431L33.4454 59.8122L35.8049 59.5354L35.1096 52.6654C34.9712 52.1109 34.4159 51.6941 33.7222 51.7637C33.0981 51.8341 32.6116 52.3878 32.6116 52.9431ZM36.0122 52.5974L36.7747 59.4657L39.2031 59.1873L38.4406 52.3205C38.3718 51.7645 37.8157 51.3468 37.1228 51.4172C36.4275 51.486 35.9426 52.0413 36.0122 52.5974ZM39.4112 52.2502L40.1753 59.0481L42.5348 58.8409L41.8411 51.9733C41.7715 51.346 41.1474 51.0004 40.4529 51.07C39.828 51.1372 39.3416 51.6253 39.4112 52.2502ZM42.7421 51.8341L43.5054 58.7009L45.9338 58.424L45.1713 51.5572C45.1713 50.9996 44.5464 50.5827 43.8527 50.7227C43.1582 50.7908 42.6733 51.2764 42.7421 51.8341ZM46.1427 51.486L46.9052 58.3552L49.2648 58.0783L48.5695 51.2076C48.5007 50.6539 47.8766 50.2378 47.2517 50.3074C46.5587 50.3747 46.073 50.9307 46.1427 51.486ZM49.4728 51.1372L50.2361 57.9391L52.7341 57.7318L51.9708 50.8604C51.9012 50.237 51.2779 49.8914 50.5834 49.961C49.8881 50.0282 49.4032 50.5147 49.4728 51.1372ZM17.5548 39.4129L18.2477 46.2108L20.6769 46.0036L19.9136 39.0664C19.9136 38.5087 19.2894 38.1631 18.6645 38.2303C17.9708 38.3007 17.4156 38.7887 17.5548 39.4129ZM20.8849 38.9976L21.6482 45.8643L24.0774 45.5883L23.3125 38.7887C23.2437 38.1638 22.6884 37.8174 21.9939 37.8174C21.3698 37.9542 20.8153 38.4399 20.8849 38.9976ZM24.2855 38.5815L24.9784 45.5186L27.4764 45.241L26.6435 38.3703C26.6435 37.8166 26.0202 37.4005 25.396 37.5382C24.7008 37.5382 24.2159 38.0942 24.2855 38.5815ZM27.6148 38.3007L28.3797 45.1722L30.8073 44.8953L30.044 37.9542C29.9744 37.4686 29.4199 37.0548 28.7262 37.1229C28.1013 37.1917 27.6148 37.6782 27.6148 38.3007ZM31.0154 37.8846L31.7779 44.7553L34.2071 44.4793L33.4446 37.6782C33.375 37.0548 32.8197 36.7076 32.126 36.7076C31.4315 36.8452 30.9466 37.3309 31.0154 37.8846ZM34.3455 37.5382L35.1785 44.4096L37.538 44.132L36.8436 37.2605C36.7051 36.7068 36.1506 36.2915 35.4553 36.4292C34.832 36.4292 34.3455 36.9845 34.3455 37.5382ZM37.7469 37.1917L38.5102 44.0632L40.9394 43.784L40.1745 36.9148C40.1057 36.3596 39.5496 35.945 38.8559 36.0131C38.1614 36.0827 37.6765 36.5692 37.7469 37.1917ZM41.1458 36.7748L41.9084 43.644L44.268 43.3663L43.575 36.5691C43.4343 35.945 42.8798 35.5947 42.186 35.5947C41.5619 35.7339 41.077 36.2211 41.1458 36.7748ZM44.476 36.4292L45.2401 43.296L47.6693 43.0199L46.9052 36.1515C46.8356 35.5939 46.2811 35.1786 45.5866 35.3178C44.8936 35.3178 44.408 35.8715 44.476 36.4292ZM47.8773 36.0827L48.6407 42.9503L50.9995 42.6734L50.3065 35.8043C50.2369 35.249 49.6112 34.8329 48.9871 34.9033C48.2934 34.9721 47.8069 35.4578 47.8773 36.0827ZM15.8881 24.3552L16.653 31.2267L19.0806 30.9483L18.3173 24.0095C18.2477 23.5238 17.6244 23.1078 16.9299 23.1766C16.3058 23.2462 15.8193 23.7326 15.8881 24.3552ZM19.2887 23.9383L19.9816 30.8098L22.4108 30.5986L21.6482 23.7319C21.6482 23.1062 21.0233 22.7574 20.3985 22.7574C19.7047 22.8974 19.1502 23.3846 19.2887 23.9383ZM22.6188 23.5927L23.3821 30.4602L25.8113 30.1833L25.048 23.315C24.9784 22.7574 24.4239 22.3421 23.7286 22.4813C23.0357 22.4813 22.5492 23.0389 22.6188 23.5927ZM26.0194 23.2462L26.7131 30.1137L29.2103 29.8369L28.379 22.9662C28.379 22.4125 27.7533 21.9964 27.1291 22.0668C26.4346 22.1356 25.8802 22.6197 26.0194 23.2462ZM29.3511 22.8278L30.1136 29.6969L32.5412 29.4896L31.7779 22.6189C31.7083 21.9948 31.1538 21.6484 30.4593 21.6484C29.8352 21.7884 29.3511 22.2725 29.3511 22.8278ZM32.7501 22.4813L33.5134 29.3504L35.9426 29.0743L35.1792 22.2029C35.1096 21.6492 34.5551 21.2331 33.8607 21.3723C33.1669 21.3723 32.6812 21.926 32.7501 22.4813ZM36.081 22.1356L36.8436 29.0047L39.2727 28.7279L38.5102 21.8572C38.4406 21.3035 37.8853 20.8874 37.1916 20.957C36.5667 21.0266 36.081 21.5099 36.081 22.1356ZM39.48 21.718L40.2441 28.5871L42.6733 28.3806L41.9084 21.5092C41.8396 20.8858 41.2851 20.5401 40.5898 20.609C39.8976 20.6794 39.4112 21.1635 39.48 21.718ZM42.8117 21.3723L43.6446 28.2414L46.0019 27.9638L45.3089 21.0939C45.1705 20.5409 44.6144 20.1225 43.9215 20.2601C43.2966 20.2594 42.8117 20.817 42.8117 21.3723ZM14.7783 37.4686L15.8881 47.8086L52.7341 43.784L51.6243 33.4455L14.7783 37.4686ZM16.3746 52.3878L17.5548 62.7278L54.4 58.7016L53.2206 48.3639L16.3746 52.3878ZM18.0397 67.307L19.1502 77.6471L55.9939 73.6216L54.8841 63.2824L18.0397 67.307ZM19.6351 82.1543L20.8145 92.5647L57.5902 88.5401L56.4811 78.132L19.6351 82.1543ZM21.301 97.0743L23.6606 119.002C24.2158 118.86 24.7704 118.723 25.396 118.515L23.591 102.486C23.4525 100.892 24.8408 99.5035 26.7843 99.2266C28.7262 99.017 30.3913 100.126 30.5313 101.793L32.1956 117.198C32.8197 117.127 33.375 117.058 33.9998 116.988L32.3348 101.585C32.1963 99.9884 33.5838 98.5329 35.4569 98.3233C37.3308 98.1129 39.0655 99.2259 39.2039 100.822L40.9402 116.504C41.4947 116.434 42.0492 116.434 42.5348 116.434H42.7429L41.0082 100.612C40.8698 99.017 42.258 97.56 44.1303 97.3504C46.0738 97.1423 47.7389 98.2537 47.9469 99.8484L49.7504 116.781C50.3753 116.85 50.9994 116.918 51.6243 116.988L49.7504 99.6411C49.5424 98.1129 50.9994 96.5878 52.8733 96.3798C54.7465 96.1725 56.4827 97.2815 56.6211 98.9458L58.7711 118.306C59.4656 118.443 60.2289 118.651 60.9227 118.86L58.147 93.0504L21.301 97.0743Z" fill="#E61C5D"/>
</svg>
