<svg width="251" height="317" viewBox="0 0 251 317" fill="none" xmlns="http://www.w3.org/2000/svg">
<path d="M50.5768 294.737C50.4281 295.123 50.0935 295.338 49.7589 295.338C49.6288 295.338 49.4987 295.316 49.3872 295.252C47.7329 294.371 46.1158 293.448 44.5358 292.482C44.0897 292.203 43.9224 291.58 44.1641 291.065C44.4057 290.549 44.9447 290.356 45.3908 290.635C46.915 291.58 48.5136 292.503 50.1307 293.362C50.5768 293.598 50.7813 294.221 50.5768 294.737ZM47.4169 132.395C47.7329 131.944 47.6585 131.278 47.2682 130.934C46.8779 130.569 46.3016 130.655 46.0042 131.106C44.8704 132.738 43.7737 134.37 42.7142 136.002C42.4168 136.453 42.4912 137.119 42.8815 137.462C43.0488 137.613 43.2347 137.677 43.4206 137.677C43.6994 137.677 43.9596 137.527 44.1455 137.269C45.205 135.659 46.3016 134.027 47.4169 132.416V132.395ZM40.8183 287.564C39.3127 286.469 37.8443 285.31 36.4502 284.128C36.0413 283.785 35.4836 283.892 35.1862 284.343C34.8888 284.816 34.9818 285.46 35.3721 285.803C36.8034 287.027 38.309 288.209 39.8517 289.325C40.0004 289.433 40.1677 289.475 40.335 289.475C40.6324 289.475 40.9298 289.304 41.0971 288.982C41.3573 288.488 41.2458 287.843 40.8183 287.543V287.564ZM34.6286 150.884C34.2197 150.561 33.6435 150.712 33.3832 151.184C32.3795 152.945 31.413 154.684 30.4836 156.424C30.2233 156.918 30.3535 157.562 30.781 157.863C30.9297 157.97 31.097 158.013 31.2642 158.013C31.5617 158.013 31.8591 157.841 32.0263 157.519C32.9557 155.801 33.9037 154.062 34.8888 152.322C35.1677 151.85 35.0561 151.184 34.6286 150.884ZM28.5133 276.14C28.1601 275.732 27.5839 275.711 27.2307 276.14C26.8776 276.548 26.859 277.214 27.2307 277.622C28.4761 279.104 29.7958 280.542 31.1713 281.917C31.3386 282.088 31.5617 282.174 31.7661 282.174C32.0263 282.174 32.268 282.046 32.4539 281.809C32.7884 281.38 32.7327 280.714 32.3609 280.328C31.0226 278.996 29.7401 277.579 28.5319 276.14H28.5133ZM59.9821 112.252C58.7554 113.798 57.5657 115.323 56.3761 116.848C56.0416 117.277 56.0787 117.943 56.4505 118.329C56.6178 118.501 56.8408 118.587 57.0453 118.587C57.2869 118.587 57.5472 118.458 57.7144 118.243C58.8855 116.719 60.0751 115.194 61.2833 113.67C61.6178 113.24 61.5993 112.574 61.2275 112.188C60.8558 111.801 60.2795 111.823 59.945 112.252H59.9821ZM70.2611 300.921C68.5139 300.491 66.7852 299.998 65.0937 299.482C64.6105 299.31 64.1086 299.675 63.9785 300.212C63.8484 300.771 64.1458 301.35 64.629 301.479C66.3391 302.016 68.1049 302.489 69.8708 302.94C69.9265 302.94 70.0009 302.961 70.0566 302.961C70.4656 302.961 70.8559 302.617 70.9488 302.145C71.0604 301.587 70.7444 301.028 70.2611 300.9V300.921ZM54.127 121.422C53.7553 121.056 53.1791 121.099 52.8445 121.529C51.6735 123.118 50.521 124.707 49.3872 126.275C49.0712 126.726 49.127 127.37 49.4987 127.756C49.666 127.907 49.8705 127.993 50.0749 127.993C50.3352 127.993 50.5954 127.864 50.7813 127.606C51.8965 126.038 53.049 124.471 54.22 122.882C54.536 122.452 54.4988 121.787 54.127 121.4V121.422ZM76.2277 94.5149C75.8746 94.1069 75.2983 94.0854 74.9452 94.4934C73.644 95.9536 72.3801 97.3924 71.1161 98.8311C70.763 99.2391 70.763 99.9048 71.1161 100.313C71.2834 100.528 71.525 100.613 71.7481 100.613C71.9712 100.613 72.2128 100.506 72.3801 100.313C73.6255 98.8741 74.8894 97.4353 76.1905 95.9966C76.5437 95.5886 76.5623 94.9229 76.2091 94.5149H76.2277ZM60.0193 297.764C58.3092 297.12 56.6364 296.433 55.0192 295.724C54.5545 295.51 54.0341 295.789 53.8482 296.326C53.6623 296.862 53.904 297.464 54.3687 297.678C56.0044 298.409 57.7144 299.117 59.4617 299.761C59.5546 299.804 59.6476 299.804 59.7405 299.804C60.1308 299.804 60.484 299.525 60.5955 299.074C60.7442 298.516 60.484 297.936 60.0193 297.764ZM64.9636 109.16C66.1718 107.678 67.3986 106.197 68.6626 104.715C69.0157 104.307 68.9971 103.641 68.6626 103.233C68.3094 102.825 67.7332 102.847 67.38 103.233C66.1161 104.736 64.8707 106.218 63.6625 107.7C63.3279 108.129 63.3279 108.773 63.6997 109.181C63.867 109.375 64.09 109.461 64.3131 109.461C64.5547 109.461 64.7963 109.353 64.9636 109.139V109.16ZM10.9108 227.395C11.4127 227.395 11.803 226.944 11.8216 226.364C11.8216 224.345 11.9145 222.305 12.0446 220.265C12.0818 219.686 11.7101 219.192 11.2082 219.149C10.7249 219.127 10.2788 219.535 10.2416 220.115C10.0929 222.198 10.0186 224.302 10 226.364C10 226.944 10.3903 227.416 10.8922 227.416L10.9108 227.395ZM12.5279 238.518C12.2677 236.543 12.0818 234.503 11.9703 232.463C11.9331 231.883 11.5056 231.453 11.0037 231.496C10.5019 231.539 10.1301 232.033 10.1673 232.613C10.2788 234.696 10.4833 236.8 10.7435 238.84C10.8179 239.356 11.1896 239.742 11.6357 239.742C11.6729 239.742 11.7286 239.742 11.7658 239.742C12.2677 239.656 12.6023 239.119 12.5279 238.561V238.518ZM11.6171 215.069C11.6171 215.069 11.7101 215.069 11.7472 215.069C12.1933 215.069 12.5837 214.682 12.6394 214.167C12.8811 212.191 13.1785 210.151 13.5316 208.133C13.6246 207.574 13.3086 207.016 12.8253 206.909C12.342 206.801 11.8588 207.166 11.7658 207.725C11.4127 209.786 11.0967 211.848 10.855 213.866C10.7807 214.446 11.1338 214.961 11.6171 215.047V215.069ZM13.6246 202.936C13.6246 202.936 13.7733 202.979 13.8476 202.979C14.2566 202.979 14.6097 202.657 14.7213 202.206C15.1488 200.273 15.6506 198.276 16.1897 196.322C16.3384 195.764 16.0782 195.184 15.5949 195.012C15.1116 194.84 14.6097 195.141 14.461 195.699C13.922 197.696 13.4201 199.715 12.974 201.691C12.8439 202.249 13.1413 202.829 13.6246 202.958V202.936ZM37.1379 147.663C37.4168 147.663 37.7142 147.512 37.8814 147.212C38.8852 145.558 39.9075 143.883 40.967 142.187C41.2644 141.714 41.1715 141.07 40.7625 140.726C40.3536 140.383 39.796 140.49 39.4986 140.963C38.4205 142.659 37.3982 144.334 36.3944 146.031C36.1156 146.503 36.2086 147.147 36.6175 147.491C36.7662 147.62 36.9521 147.684 37.1379 147.684V147.663ZM21.8775 266.713C21.5987 266.241 21.0411 266.112 20.6135 266.434C20.2046 266.756 20.0931 267.4 20.3719 267.894C21.3756 269.612 22.4723 271.309 23.6061 272.919C23.792 273.177 24.0522 273.306 24.3125 273.306C24.5169 273.306 24.7214 273.22 24.8887 273.069C25.279 272.704 25.3348 272.039 25.0188 271.609C23.9035 270.042 22.8441 268.388 21.8775 266.735V266.713ZM20.7437 179.658C20.8738 179.723 20.9853 179.744 21.1154 179.744C21.4686 179.744 21.7846 179.508 21.9333 179.143C22.6582 177.318 23.4203 175.471 24.2195 173.603C24.4426 173.087 24.2567 172.465 23.8106 172.207C23.3645 171.949 22.8255 172.164 22.6024 172.679C21.7846 174.569 21.0039 176.437 20.279 178.284C20.0745 178.8 20.279 179.422 20.7251 179.658H20.7437ZM13.5316 244.509C13.4201 243.951 12.9368 243.586 12.4536 243.736C11.9703 243.865 11.6729 244.423 11.7844 244.982C12.1933 247.022 12.6952 249.062 13.2528 251.016C13.3829 251.445 13.7361 251.725 14.1079 251.725C14.2008 251.725 14.2937 251.725 14.3867 251.682C14.8514 251.51 15.1116 250.909 14.9629 250.372C14.4239 248.46 13.9406 246.485 13.5316 244.509ZM19.331 183.416C18.8663 183.202 18.3458 183.459 18.16 183.975C17.4722 185.929 16.8217 187.861 16.2083 189.773C16.041 190.309 16.2826 190.911 16.7473 191.104C16.8402 191.147 16.9518 191.168 17.0633 191.168C17.4351 191.168 17.7882 190.911 17.9183 190.481C18.5131 188.592 19.1451 186.68 19.8329 184.748C20.0187 184.211 19.7957 183.61 19.3496 183.395L19.331 183.416ZM16.8217 256.062C16.6172 255.525 16.0967 255.289 15.6321 255.525C15.1674 255.762 14.9629 256.363 15.1674 256.9C15.8923 258.811 16.6915 260.701 17.5652 262.547C17.7325 262.891 18.0299 263.084 18.3644 263.084C18.5131 263.084 18.6618 263.041 18.7919 262.955C19.2381 262.676 19.3868 262.053 19.1451 261.538C18.3087 259.756 17.528 257.93 16.8217 256.084V256.062ZM28.978 161.363C28.5505 161.062 27.9928 161.234 27.7326 161.749C26.8218 163.575 25.9482 165.378 25.0932 167.161C24.8515 167.676 25.0188 168.299 25.4649 168.578C25.595 168.664 25.7437 168.707 25.8924 168.707C26.2084 168.707 26.5244 168.514 26.6917 168.17C27.5281 166.388 28.4018 164.605 29.294 162.802C29.5542 162.308 29.4055 161.663 28.9594 161.384L28.978 161.363ZM203.181 269.097C201.62 270.106 200.059 271.072 198.497 272.039C198.051 272.318 197.884 272.941 198.125 273.456C198.293 273.8 198.609 274.014 198.925 274.014C199.073 274.014 199.222 273.971 199.352 273.885C200.914 272.919 202.494 271.931 204.073 270.922C204.501 270.643 204.668 269.999 204.427 269.505C204.185 269.011 203.627 268.818 203.2 269.097H203.181ZM184.148 280.242C182.512 281.101 180.895 281.938 179.278 282.754C178.813 282.99 178.608 283.592 178.813 284.128C178.962 284.515 179.296 284.751 179.649 284.751C179.761 284.751 179.891 284.73 180.002 284.665C181.638 283.849 183.274 282.99 184.91 282.131C185.356 281.895 185.56 281.272 185.356 280.757C185.151 280.242 184.612 280.005 184.166 280.242H184.148ZM193.757 274.873C192.159 275.818 190.56 276.72 188.98 277.6C188.534 277.858 188.348 278.481 188.553 278.996C188.701 279.361 189.036 279.576 189.371 279.576C189.501 279.576 189.631 279.533 189.761 279.469C191.36 278.567 192.958 277.665 194.575 276.72C195.021 276.462 195.189 275.84 194.966 275.324C194.742 274.809 194.203 274.594 193.757 274.873ZM154.314 293.534C152.604 294.157 150.894 294.737 149.203 295.295C148.719 295.445 148.441 296.025 148.589 296.583C148.701 297.034 149.073 297.335 149.463 297.335C149.537 297.335 149.63 297.335 149.705 297.292C151.415 296.734 153.125 296.132 154.853 295.51C155.337 295.338 155.597 294.758 155.448 294.2C155.3 293.641 154.798 293.341 154.314 293.513V293.534ZM174.37 285.159C172.716 285.954 171.062 286.705 169.408 287.435C168.943 287.65 168.701 288.251 168.887 288.788C169.017 289.196 169.37 289.454 169.724 289.454C169.835 289.454 169.947 289.433 170.058 289.39C171.712 288.659 173.385 287.886 175.04 287.092C175.504 286.877 175.727 286.254 175.523 285.739C175.337 285.202 174.798 284.944 174.352 285.181L174.37 285.159ZM164.426 289.604C162.735 290.313 161.062 290.979 159.389 291.644C158.924 291.838 158.664 292.417 158.813 292.976C158.943 293.405 159.296 293.684 159.668 293.684C159.761 293.684 159.853 293.684 159.965 293.62C161.656 292.954 163.348 292.289 165.039 291.58C165.504 291.387 165.746 290.785 165.578 290.248C165.411 289.712 164.891 289.433 164.426 289.626V289.604ZM212.419 262.912C210.877 263.986 209.352 265.017 207.828 266.048C207.401 266.327 207.252 266.971 207.494 267.465C207.661 267.808 207.958 267.98 208.274 267.98C208.423 267.98 208.59 267.937 208.72 267.83C210.263 266.799 211.806 265.747 213.349 264.673C213.776 264.373 213.906 263.728 213.665 263.234C213.404 262.741 212.847 262.59 212.419 262.869V262.912ZM230.301 249.448C228.832 250.629 227.364 251.789 225.895 252.949C225.486 253.271 225.375 253.915 225.654 254.409C225.821 254.709 226.118 254.86 226.397 254.86C226.564 254.86 226.75 254.795 226.899 254.688C228.367 253.528 229.854 252.369 231.323 251.166C231.732 250.844 231.825 250.178 231.546 249.706C231.267 249.234 230.691 249.126 230.282 249.448H230.301ZM240.208 242.426C239.91 241.975 239.334 241.868 238.944 242.212C237.513 243.457 236.081 244.66 234.65 245.862C234.241 246.206 234.148 246.85 234.446 247.322C234.632 247.602 234.892 247.752 235.171 247.752C235.356 247.752 235.542 247.687 235.71 247.559C237.141 246.356 238.591 245.132 240.022 243.887C240.412 243.543 240.505 242.877 240.208 242.426ZM221.453 256.363C219.947 257.501 218.46 258.596 216.955 259.691C216.527 259.992 216.397 260.636 216.676 261.13C216.843 261.452 217.141 261.624 217.438 261.624C217.605 261.624 217.773 261.581 217.921 261.474C219.427 260.378 220.932 259.262 222.438 258.124C222.866 257.802 222.977 257.157 222.698 256.685C222.419 256.213 221.862 256.062 221.453 256.384V256.363ZM91.358 303.992C89.5736 303.906 87.8078 303.777 86.042 303.605C85.5215 303.519 85.1126 303.992 85.0754 304.55C85.0383 305.13 85.41 305.624 85.8933 305.667C87.6591 305.838 89.4621 305.967 91.2651 306.053H91.3023C91.7856 306.053 92.1759 305.624 92.2131 305.065C92.2317 304.486 91.8413 303.992 91.358 303.97V303.992ZM100.02 71.1943C100.41 70.8293 100.447 70.1636 100.131 69.7126C99.8154 69.2832 99.2392 69.2187 98.8489 69.5838C97.4734 70.9366 96.1165 72.268 94.7782 73.5994C94.4064 73.9859 94.3507 74.6301 94.6852 75.0811C94.8711 75.3173 95.1128 75.4461 95.373 75.4461C95.5774 75.4461 95.8005 75.3602 95.9678 75.1885C97.3061 73.8571 98.663 72.5257 100.038 71.1729L100.02 71.1943ZM90.7261 77.6794C89.3692 79.0537 88.0309 80.4281 86.7297 81.8024C86.358 82.1889 86.3208 82.8546 86.6554 83.2841C86.8413 83.5203 87.0829 83.6277 87.3245 83.6277C87.5476 83.6277 87.752 83.5418 87.9379 83.37C89.2391 81.9957 90.5774 80.6428 91.9343 79.2685C92.306 78.882 92.3432 78.2377 92.0086 77.7868C91.674 77.3573 91.0978 77.3144 90.7261 77.7009V77.6794ZM144.054 296.905C142.325 297.421 140.597 297.915 138.887 298.387C138.403 298.516 138.106 299.074 138.217 299.633C138.31 300.105 138.682 300.449 139.091 300.449C139.165 300.449 139.221 300.449 139.296 300.427C141.024 299.955 142.771 299.461 144.519 298.945C145.002 298.795 145.299 298.237 145.169 297.678C145.039 297.12 144.537 296.777 144.073 296.927L144.054 296.905ZM101.99 304.078C100.615 304.121 99.2578 304.142 97.9195 304.142H96.6741C96.2094 304.056 95.7633 304.593 95.7633 305.173C95.7633 305.753 96.1537 306.225 96.6555 306.225H97.9195C99.2764 306.225 100.652 306.225 102.046 306.161C102.548 306.161 102.938 305.667 102.92 305.087C102.92 304.507 102.511 304.078 101.99 304.078ZM80.7631 302.961C78.9787 302.703 77.2315 302.403 75.5028 302.081C75.0195 301.995 74.5362 302.36 74.4619 302.94C74.369 303.519 74.7035 304.056 75.2054 304.142C76.9526 304.486 78.737 304.786 80.54 305.044C80.5772 305.044 80.6144 305.044 80.6516 305.044C81.0977 305.044 81.488 304.657 81.5438 304.121C81.5995 303.541 81.2464 303.025 80.7631 302.961ZM82.7706 85.9683C81.4508 87.3856 80.1311 88.8028 78.8486 90.1986C78.4954 90.6066 78.4768 91.2509 78.8114 91.6803C78.9973 91.8951 79.2203 92.0024 79.462 92.0024C79.685 92.0024 79.9081 91.9165 80.0754 91.7233C81.3579 90.3275 82.659 88.9102 83.9788 87.5144C84.3505 87.1279 84.3691 86.4622 84.0345 86.0327C83.6999 85.6032 83.1237 85.5818 82.752 85.9683H82.7706ZM123.199 301.866C121.433 302.166 119.667 302.446 117.92 302.703C117.418 302.768 117.065 303.283 117.139 303.863C117.195 304.4 117.585 304.786 118.031 304.786C118.068 304.786 118.106 304.786 118.143 304.786C119.909 304.55 121.674 304.271 123.477 303.949C123.979 303.863 124.314 303.326 124.24 302.768C124.165 302.188 123.719 301.801 123.217 301.887L123.199 301.866ZM133.682 299.697C131.935 300.105 130.188 300.513 128.44 300.857C127.957 300.964 127.623 301.501 127.715 302.059C127.79 302.574 128.18 302.918 128.608 302.918C128.663 302.918 128.719 302.918 128.775 302.918C130.522 302.553 132.288 302.166 134.054 301.737C134.537 301.63 134.853 301.071 134.76 300.492C134.667 299.933 134.184 299.568 133.701 299.675L133.682 299.697ZM108.384 61.8318C108.068 61.3808 107.492 61.3164 107.12 61.6814C105.726 62.9913 104.332 64.3012 102.975 65.6111C102.585 65.9762 102.529 66.6419 102.864 67.0928C103.05 67.3505 103.31 67.4794 103.57 67.4794C103.775 67.4794 103.979 67.3935 104.146 67.2432C105.503 65.9333 106.879 64.6448 108.273 63.3349C108.663 62.9699 108.719 62.3042 108.403 61.8747L108.384 61.8318ZM112.604 303.348C110.819 303.541 109.053 303.691 107.288 303.798C106.786 303.841 106.414 304.335 106.433 304.894C106.47 305.452 106.86 305.881 107.325 305.881H107.381C109.146 305.753 110.949 305.602 112.752 305.409C113.254 305.366 113.607 304.851 113.57 304.271C113.533 303.691 113.087 303.305 112.585 303.326L112.604 303.348Z" fill="#E61C5D"/>
<path d="M139.202 8.19886C142.92 5.22484 146.954 0.931101 146.303 0.131833C145.652 -0.667435 140.578 2.30658 136.86 5.29919C136.526 5.57801 136.191 5.83823 135.875 6.09846C135.225 5.98693 133.868 5.76388 132.139 5.48507C132.158 5.48507 132.195 5.48507 132.214 5.48507L133.217 4.6858C133.347 4.59286 133.347 4.3884 133.217 4.25829L132.437 3.29173C132.325 3.14303 132.139 3.10585 132.009 3.21738L131.005 4.01664C131.005 4.01664 130.931 4.12817 130.912 4.20252L129.741 5.1319C128.273 4.89026 126.674 4.63004 125.094 4.36981L126.08 3.58913C126.21 3.49619 126.21 3.29173 126.08 3.16162L125.299 2.19506C125.187 2.04636 125.002 2.00918 124.871 2.12071L123.868 2.91998C123.868 2.91998 123.793 3.0315 123.775 3.10585L122.641 3.99806C118.626 3.34749 115.262 2.82704 115.15 2.86421C114.871 2.95715 113.44 4.18393 113.44 4.18393C113.087 4.46275 112.845 4.72298 112.864 4.76015C112.901 4.79733 113.31 4.51851 113.644 4.25829L121.024 6.95349C120.764 7.19513 120.615 7.41818 120.671 7.49253C120.745 7.58547 121.08 7.41818 121.414 7.13937L121.451 7.10219L122.901 7.64123C122.659 7.86429 122.511 8.08734 122.567 8.16169C122.641 8.25463 122.975 8.08734 123.31 7.80852L124.63 8.27321L125.429 8.84943C125.132 9.10966 124.927 9.36988 124.983 9.44423C125.057 9.53717 125.392 9.36988 125.726 9.09107H125.745L127.325 10.2063C127.028 10.4666 126.823 10.7268 126.897 10.8011C126.972 10.8941 127.306 10.7268 127.641 10.448L129.091 11.4889C126.619 13.5149 125.652 14.3328 123.812 15.8198C121.953 17.3068 120.262 18.8682 118.905 20.2622C116.711 19.9277 112.381 19.2027 112.381 19.2027L111.265 19.9462L115.968 23.5894C115.708 23.9426 115.503 24.2214 115.392 24.4445C114.667 25.1136 114.239 25.5597 114.295 25.6341C114.351 25.7084 114.871 25.411 115.652 24.8534C115.894 24.779 116.228 24.6117 116.656 24.4073L119.202 29.8534L120.187 28.9427C120.187 28.9427 120.448 24.2586 120.596 22.121C122.195 21.1173 124.016 19.9277 125.912 18.6079C128.217 16.7678 129.258 15.9871 131.396 14.3142L132.083 15.9499C131.73 16.2473 131.507 16.5261 131.582 16.6191C131.637 16.6934 131.935 16.5633 132.269 16.3217L133.031 18.1247H133.013C132.66 18.4221 132.437 18.7195 132.511 18.7938C132.567 18.8682 132.883 18.738 133.199 18.4964L133.589 19.3886L133.775 20.7827C133.422 21.0615 133.199 21.3589 133.273 21.4518C133.329 21.5262 133.57 21.4333 133.849 21.2288L134.054 22.7716H134.017C133.663 23.069 133.44 23.3664 133.515 23.4593C133.57 23.5337 133.831 23.4221 134.109 23.2177L135.113 31.0059C134.797 31.2847 134.425 31.6193 134.444 31.6565C134.481 31.6936 134.779 31.5078 135.132 31.2289C135.132 31.2289 136.656 30.0951 136.786 29.8534C136.842 29.7605 137.065 26.359 137.325 22.3069L138.459 21.4147C138.459 21.4147 138.608 21.4147 138.663 21.3775L139.667 20.5782C139.797 20.4853 139.797 20.2808 139.667 20.1507L138.886 19.1842C138.775 19.0355 138.589 18.9983 138.459 19.1098L137.474 19.8905C137.567 18.2919 137.66 16.6934 137.753 15.1878L138.924 14.2584C138.924 14.2584 139.072 14.2584 139.128 14.2213L140.132 13.422C140.262 13.329 140.262 13.1246 140.132 12.9945L139.351 12.0279C139.24 11.8792 139.054 11.842 138.924 11.9536L137.92 12.7528C137.92 12.7528 137.92 12.79 137.883 12.8272C137.994 11.0985 138.069 9.74164 138.106 9.07248C138.422 8.81226 138.756 8.55203 139.11 8.27321L139.202 8.19886Z" fill="#E61C5D"/>
</svg>
