<svg width="392" height="204" viewBox="0 0 392 204" fill="none" xmlns="http://www.w3.org/2000/svg">
<path d="M173.253 0.892206C173.253 1.39407 172.844 1.803 172.342 1.803C170.558 1.803 168.792 1.803 167.008 1.84018C166.506 1.84018 166.116 1.44984 166.097 0.947969C166.097 0.446103 166.487 0.0371753 166.989 0.0371753C168.774 0.0185877 170.577 0 172.361 0C172.863 0 173.272 0.408928 173.272 0.910794L173.253 0.892206ZM150.874 0.576217C149.089 0.669155 147.305 0.78068 145.502 0.892206C145 0.929382 144.628 1.3569 144.665 1.85876C144.703 2.34204 145.093 2.71379 145.558 2.71379C145.576 2.71379 145.595 2.71379 145.613 2.71379C147.398 2.60227 149.182 2.49074 150.948 2.3978C151.45 2.37922 151.822 1.9517 151.803 1.44984C151.785 0.947969 151.357 0.557629 150.855 0.594804L150.874 0.576217ZM161.617 0.148701C159.833 0.204464 158.03 0.260227 156.246 0.334577C155.744 0.353165 155.353 0.780681 155.372 1.26396C155.391 1.74724 155.799 2.13758 156.283 2.13758H156.32C158.104 2.06323 159.889 2.00746 161.673 1.9517C162.175 1.9517 162.565 1.52419 162.547 1.02232C162.547 0.520454 162.119 0.148701 161.617 0.148701ZM140.149 1.26396C138.364 1.39407 136.58 1.54277 134.795 1.71006C134.294 1.74724 133.922 2.19334 133.978 2.69521C134.015 3.1599 134.405 3.51306 134.87 3.51306C134.888 3.51306 134.926 3.51306 134.944 3.51306C136.729 3.34577 138.494 3.21566 140.279 3.06696C140.781 3.02978 141.152 2.60227 141.115 2.1004C141.078 1.59854 140.651 1.22678 140.149 1.26396ZM183.086 0.111526C181.302 0.0743505 179.517 0.0371754 177.714 0.0185877C177.25 0.0185877 176.804 0.408928 176.804 0.910794C176.804 1.41266 177.194 1.82159 177.696 1.82159C179.48 1.82159 181.265 1.87735 183.03 1.91453H183.049C183.532 1.91453 183.941 1.52419 183.96 1.02232C183.96 0.520454 183.569 0.111526 183.068 0.0929382L183.086 0.111526ZM129.442 2.21193C127.658 2.3978 125.873 2.58368 124.108 2.78814C123.606 2.84391 123.253 3.29001 123.308 3.79188C123.364 4.25657 123.754 4.59114 124.201 4.59114C124.238 4.59114 124.275 4.59114 124.312 4.59114C126.096 4.38668 127.862 4.2008 129.628 4.01493C130.13 3.95917 130.483 3.51306 130.427 3.02978C130.372 2.52792 129.944 2.17475 129.442 2.23052V2.21193ZM118.773 3.43871C117.007 3.66176 115.223 3.9034 113.457 4.14504C112.955 4.21939 112.62 4.6655 112.695 5.16736C112.751 5.61346 113.141 5.94804 113.587 5.94804C113.624 5.94804 113.661 5.94804 113.717 5.94804C115.483 5.7064 117.249 5.46476 119.015 5.24171C119.516 5.18595 119.87 4.72126 119.795 4.23798C119.739 3.73611 119.293 3.38295 118.791 3.4573L118.773 3.43871ZM225.893 3.19707C224.128 2.97402 222.343 2.76956 220.559 2.56509C220.076 2.50933 219.611 2.86249 219.555 3.36436C219.499 3.86623 219.852 4.31233 220.354 4.36809C222.139 4.57256 223.905 4.77702 225.67 4.98148C225.708 4.98148 225.745 4.98148 225.782 4.98148C226.228 4.98148 226.618 4.64691 226.674 4.18222C226.73 3.68035 226.377 3.23425 225.893 3.17848V3.19707ZM193.83 0.483278C192.045 0.39034 190.261 0.334577 188.458 0.260227C187.956 0.260227 187.547 0.631979 187.529 1.13385C187.529 1.63571 187.9 2.04464 188.402 2.06323C190.187 2.11899 191.971 2.19334 193.737 2.28628H193.774C194.257 2.28628 194.648 1.91453 194.685 1.43125C194.703 0.929381 194.313 0.501866 193.83 0.483278ZM236.526 4.6655C234.76 4.40527 232.994 4.14504 231.209 3.9034C230.708 3.82905 230.262 4.18222 230.187 4.68408C230.113 5.18595 230.466 5.63205 230.968 5.7064C232.734 5.94804 234.5 6.20827 236.247 6.4685C236.284 6.4685 236.34 6.4685 236.377 6.4685C236.823 6.4685 237.195 6.15251 237.269 5.7064C237.343 5.20454 237.009 4.75843 236.507 4.68408L236.526 4.6655ZM215.224 2.02605C213.44 1.85876 211.674 1.69147 209.889 1.54277C209.425 1.52419 208.96 1.85876 208.904 2.36063C208.867 2.86249 209.239 3.29001 209.722 3.34577C211.507 3.49447 213.272 3.66176 215.038 3.82905C215.075 3.82905 215.094 3.82905 215.131 3.82905C215.596 3.82905 215.986 3.47589 216.023 3.0112C216.079 2.50933 215.707 2.06323 215.206 2.02605H215.224ZM204.536 1.11526C202.752 0.985144 200.967 0.873619 199.183 0.762093H199.127C198.644 0.762093 198.254 1.13385 198.216 1.61712C198.179 2.11899 198.57 2.54651 199.071 2.56509C200.856 2.67662 202.622 2.78814 204.406 2.91826H204.48C204.945 2.91826 205.354 2.56509 205.373 2.08181C205.41 1.57995 205.038 1.15243 204.536 1.11526ZM86.9881 8.7176C85.2408 9.07076 83.4936 9.4611 81.7278 9.83286C81.2445 9.94438 80.9285 10.4277 81.04 10.9109C81.133 11.3385 81.5047 11.6173 81.9136 11.6173C81.9694 11.6173 82.0438 11.6173 82.0995 11.5987C83.8468 11.2083 85.594 10.8366 87.3227 10.4834C87.8059 10.3905 88.1219 9.90721 88.029 9.40534C87.9174 8.92206 87.4528 8.60607 86.9509 8.69901L86.9881 8.7176ZM108.141 4.92572C106.375 5.20454 104.609 5.48335 102.843 5.78075C102.341 5.8551 102.025 6.31979 102.1 6.82166C102.174 7.26776 102.564 7.58375 102.992 7.58375C103.048 7.58375 103.085 7.58375 103.141 7.58375C104.907 7.28635 106.654 7.00754 108.42 6.74731C108.921 6.67296 109.256 6.20827 109.182 5.72499C109.107 5.22312 108.643 4.88855 108.159 4.9629L108.141 4.92572ZM15.2584 30.9112C13.6041 31.599 11.9684 32.3239 10.3327 33.0302C9.86799 33.2347 9.66353 33.7737 9.86799 34.2198C10.0167 34.5544 10.3513 34.7589 10.7044 34.7589C10.8346 34.7589 10.9461 34.7403 11.0762 34.6845C12.7119 33.9596 14.3476 33.2533 15.9833 32.5655C16.448 32.3796 16.6525 31.8406 16.4666 31.3759C16.2807 30.9112 15.7417 30.7068 15.277 30.8926L15.2584 30.9112ZM45.4633 19.6843C43.7532 20.2419 42.0618 20.7996 40.3703 21.3758C39.9056 21.5431 39.6454 22.0449 39.8127 22.5282C39.9428 22.9 40.2959 23.1416 40.6677 23.1416C40.7606 23.1416 40.8536 23.1416 40.9651 23.0858C42.6566 22.5096 44.348 21.952 46.0395 21.413C46.5228 21.2642 46.783 20.7438 46.6157 20.2791C46.467 19.7958 45.9466 19.5356 45.4819 19.7029L45.4633 19.6843ZM35.2959 23.1416C33.6044 23.7364 31.9315 24.3498 30.24 24.9818C29.7753 25.1491 29.5337 25.6695 29.701 26.1528C29.8311 26.5245 30.1843 26.7476 30.556 26.7476C30.6675 26.7476 30.7605 26.7476 30.872 26.6918C32.5449 26.0784 34.2178 25.4651 35.8907 24.8702C36.3554 24.703 36.6156 24.1825 36.4483 23.7178C36.281 23.2531 35.7606 22.9929 35.2959 23.1602V23.1416ZM387.68 90.5218C387.792 90.9307 388.145 91.1909 388.554 91.1909C388.628 91.1909 388.702 91.1909 388.795 91.1537C389.279 91.0236 389.557 90.5218 389.427 90.0385C388.963 88.3284 388.387 86.5812 387.717 84.8897C387.531 84.425 387.011 84.202 386.546 84.3693C386.082 84.5551 385.859 85.0756 386.026 85.5403C386.676 87.176 387.215 88.8489 387.68 90.5218ZM5.38838 35.2236C3.77126 35.9671 2.13554 36.7292 0.518419 37.4912C0.0723158 37.7143 -0.132154 38.2533 0.0908972 38.6994C0.239598 39.0154 0.57418 39.2199 0.908757 39.2199C1.03887 39.2199 1.16898 39.1827 1.2991 39.127C2.91622 38.3649 4.51475 37.6028 6.13188 36.8593C6.57798 36.6548 6.78245 36.1158 6.57799 35.6697C6.37353 35.2236 5.83449 35.0191 5.38838 35.2236ZM25.1842 26.8591C23.5113 27.5097 21.857 28.1603 20.1841 28.848C19.7194 29.0339 19.4964 29.5543 19.6823 30.019C19.831 30.3722 20.1655 30.5766 20.5187 30.5766C20.6302 30.5766 20.7418 30.5581 20.8533 30.5023C22.5076 29.8331 24.1619 29.1826 25.8162 28.532C26.2809 28.3461 26.5039 27.8257 26.3366 27.361C26.1508 26.8963 25.6303 26.6732 25.1656 26.8405L25.1842 26.8591ZM55.6865 16.5058C53.9764 17.0077 52.2478 17.5281 50.5377 18.0486C50.0544 18.1973 49.7942 18.6992 49.9429 19.1824C50.0545 19.5728 50.4262 19.8144 50.7979 19.8144C50.8909 19.8144 50.9838 19.8144 51.0582 19.7772C52.7682 19.2568 54.4783 18.7363 56.1698 18.2345C56.6531 18.0858 56.9319 17.5839 56.7832 17.1192C56.6345 16.6359 56.1326 16.3571 55.6679 16.5058H55.6865ZM247.083 6.39414C245.336 6.07815 243.57 5.78075 241.786 5.48335C241.303 5.409 240.819 5.74358 240.745 6.22686C240.671 6.72872 241.005 7.19341 241.488 7.26776C243.254 7.56517 245.002 7.86257 246.749 8.15997C246.805 8.15997 246.86 8.15997 246.916 8.15997C247.344 8.15997 247.734 7.84398 247.808 7.41646C247.901 6.93319 247.567 6.44991 247.083 6.37556V6.39414ZM97.5087 6.69155C95.7428 7.00754 93.977 7.34211 92.2298 7.67669C91.7465 7.76963 91.4119 8.25291 91.5049 8.73619C91.5792 9.1637 91.9696 9.4611 92.3971 9.4611C92.4528 9.4611 92.5086 9.4611 92.5644 9.4611C94.3116 9.12653 96.0774 8.79195 97.8247 8.47596C98.3079 8.38302 98.6425 7.91833 98.5496 7.43505C98.4566 6.95177 97.9919 6.6172 97.5087 6.71013V6.69155ZM66.0398 13.6433C64.3112 14.0894 62.5825 14.5727 60.8539 15.0374C60.3706 15.1675 60.0918 15.6694 60.2219 16.1527C60.3334 16.5616 60.7052 16.8218 61.0955 16.8218C61.1699 16.8218 61.2628 16.8218 61.3371 16.7846C63.0472 16.3014 64.7759 15.8367 66.5045 15.3906C66.9878 15.2604 67.2666 14.7772 67.1551 14.2939C67.025 13.8106 66.5417 13.5318 66.0584 13.6433H66.0398ZM76.4675 11.0411C74.7202 11.45 72.9916 11.8775 71.2443 12.305C70.7611 12.4351 70.4637 12.9184 70.5938 13.4017C70.7053 13.8106 71.0585 14.0894 71.4674 14.0894C71.5418 14.0894 71.6161 14.0894 71.6905 14.0708C73.4191 13.6433 75.1478 13.2158 76.895 12.8069C77.3783 12.6954 77.6757 12.2121 77.5642 11.7288C77.4526 11.2455 76.9693 10.9295 76.4861 11.0596L76.4675 11.0411ZM388.74 95.6148C389 97.3434 389.167 99.0907 389.223 100.819C389.223 101.303 389.632 101.693 390.134 101.693H390.171C390.673 101.693 391.063 101.265 391.045 100.764C390.989 98.9605 390.821 97.139 390.543 95.336C390.468 94.8341 390.004 94.4995 389.52 94.5739C389.018 94.6482 388.684 95.1129 388.758 95.5962L388.74 95.6148ZM360.895 51.5249C360.505 51.2089 359.929 51.2833 359.631 51.6736C359.315 52.0639 359.39 52.6402 359.78 52.9376C361.193 54.0528 362.55 55.1867 363.869 56.3205C364.037 56.4692 364.26 56.5436 364.464 56.5436C364.724 56.5436 364.966 56.432 365.152 56.2276C365.487 55.8558 365.431 55.2796 365.059 54.945C363.721 53.7926 362.327 52.6402 360.895 51.5063V51.5249ZM369.78 142.586C368.554 143.812 367.271 145.039 365.951 146.247C365.579 146.582 365.561 147.158 365.895 147.53C366.081 147.734 366.323 147.827 366.565 147.827C366.788 147.827 366.992 147.753 367.178 147.586C368.516 146.359 369.836 145.114 371.081 143.85C371.435 143.497 371.435 142.92 371.081 142.567C370.728 142.214 370.152 142.214 369.799 142.567L369.78 142.586ZM369.037 58.5882C368.684 58.235 368.107 58.2536 367.754 58.6254C367.42 58.9785 367.42 59.5548 367.791 59.9079C369.093 61.1347 370.357 62.3987 371.528 63.6626C371.713 63.8485 371.936 63.9414 372.178 63.9414C372.401 63.9414 372.624 63.8671 372.791 63.6998C373.163 63.3652 373.163 62.789 372.829 62.4173C371.62 61.1347 370.338 59.8522 369.018 58.5882H369.037ZM352.196 45.1679C351.787 44.8891 351.23 45.0006 350.951 45.4096C350.672 45.8185 350.784 46.3761 351.193 46.6735C352.68 47.6773 354.13 48.6996 355.542 49.7405C355.709 49.852 355.895 49.9078 356.081 49.9078C356.36 49.9078 356.639 49.7777 356.806 49.536C357.104 49.1271 357.011 48.5695 356.602 48.2721C355.17 47.2312 353.702 46.1903 352.196 45.1865V45.1679ZM361.936 149.742C360.598 150.857 359.223 151.954 357.791 153.069C357.401 153.367 357.327 153.943 357.624 154.333C357.81 154.556 358.07 154.686 358.33 154.686C358.516 154.686 358.721 154.63 358.888 154.5C360.338 153.385 361.732 152.251 363.089 151.136C363.479 150.82 363.516 150.244 363.2 149.853C362.884 149.463 362.308 149.426 361.936 149.742ZM376.806 134.667C375.747 136.024 374.613 137.381 373.405 138.719C373.07 139.091 373.107 139.667 373.479 140.002C373.647 140.151 373.87 140.225 374.074 140.225C374.316 140.225 374.576 140.114 374.743 139.928C375.97 138.552 377.122 137.158 378.219 135.783C378.535 135.392 378.461 134.816 378.07 134.519C377.68 134.221 377.104 134.277 376.806 134.667ZM390.059 105.243C389.576 105.206 389.13 105.559 389.074 106.061C388.926 107.79 388.665 109.537 388.312 111.247C388.219 111.73 388.517 112.214 389.018 112.325C389.074 112.325 389.149 112.344 389.204 112.344C389.613 112.344 390.004 112.046 390.097 111.619C390.468 109.834 390.729 108.031 390.896 106.228C390.933 105.726 390.58 105.299 390.078 105.243H390.059ZM257.623 8.4202C255.875 8.06703 254.128 7.71387 252.362 7.37929C251.879 7.28635 251.396 7.60234 251.303 8.10421C251.21 8.58748 251.526 9.07076 252.028 9.1637C253.793 9.49828 255.522 9.85144 257.269 10.2046C257.325 10.2046 257.399 10.2046 257.455 10.2046C257.883 10.2046 258.254 9.90721 258.347 9.47969C258.44 8.99641 258.124 8.51313 257.641 8.4202H257.623ZM353.535 156.248C352.122 157.27 350.672 158.274 349.167 159.277C348.758 159.556 348.646 160.114 348.925 160.523C349.092 160.783 349.39 160.932 349.668 160.932C349.836 160.932 350.022 160.876 350.17 160.783C351.695 159.761 353.163 158.738 354.594 157.716C355.003 157.419 355.096 156.861 354.799 156.452C354.501 156.043 353.944 155.95 353.535 156.248ZM379.78 70.7073C378.739 69.2761 377.624 67.8448 376.453 66.4508C376.137 66.0604 375.561 66.0233 375.171 66.3393C374.78 66.6552 374.743 67.2315 375.059 67.6218C376.212 68.9973 377.308 70.3914 378.312 71.7854C378.479 72.0271 378.758 72.1572 379.037 72.1572C379.223 72.1572 379.409 72.1014 379.576 71.9899C379.985 71.6925 380.059 71.1349 379.78 70.7259V70.7073ZM383.925 125.559C383.498 125.318 382.94 125.466 382.699 125.913C381.862 127.418 380.933 128.924 379.929 130.411C379.65 130.82 379.762 131.377 380.171 131.656C380.319 131.768 380.505 131.805 380.673 131.805C380.97 131.805 381.249 131.656 381.416 131.415C382.438 129.89 383.405 128.348 384.26 126.805C384.502 126.377 384.353 125.82 383.907 125.578L383.925 125.559ZM385.468 79.9268C384.669 78.3469 383.777 76.7669 382.81 75.2056C382.55 74.778 381.992 74.6479 381.565 74.9082C381.137 75.1684 381.007 75.726 381.267 76.1535C382.215 77.6777 383.07 79.2205 383.851 80.7447C384 81.0607 384.334 81.2465 384.65 81.2465C384.781 81.2465 384.929 81.2094 385.059 81.1536C385.505 80.9305 385.691 80.3915 385.45 79.9454L385.468 79.9268ZM388.108 115.727C387.624 115.578 387.123 115.838 386.974 116.303C386.435 117.939 385.803 119.574 385.078 121.21C384.873 121.675 385.078 122.195 385.543 122.4C385.654 122.455 385.784 122.474 385.914 122.474C386.268 122.474 386.584 122.269 386.732 121.935C387.476 120.262 388.145 118.552 388.702 116.86C388.851 116.377 388.61 115.875 388.126 115.727H388.108ZM319.11 27.361C317.475 26.6547 315.82 25.9669 314.166 25.2792C313.701 25.0933 313.181 25.3164 312.995 25.781C312.809 26.2457 313.032 26.7662 313.497 26.9521C315.151 27.6212 316.806 28.309 318.423 29.0153C318.534 29.0711 318.664 29.0896 318.776 29.0896C319.129 29.0896 319.464 28.8852 319.612 28.5506C319.817 28.0859 319.612 27.5655 319.148 27.361H319.11ZM299.073 19.6471C297.381 19.0709 295.69 18.5133 293.98 17.9557C293.515 17.8069 292.995 18.0672 292.846 18.5319C292.697 19.0151 292.958 19.517 293.422 19.6657C295.132 20.2233 296.824 20.781 298.497 21.3572C298.59 21.3944 298.701 21.413 298.794 21.413C299.166 21.413 299.519 21.1713 299.649 20.7996C299.816 20.3349 299.556 19.8144 299.092 19.6471H299.073ZM309.166 23.3089C307.512 22.6769 305.839 22.0449 304.129 21.4315C303.664 21.2642 303.144 21.5059 302.976 21.9706C302.809 22.4353 303.051 22.9557 303.515 23.123C305.207 23.7364 306.861 24.3498 308.515 25.0004C308.627 25.0375 308.739 25.0561 308.831 25.0561C309.203 25.0561 309.538 24.8331 309.668 24.4799C309.854 24.0152 309.612 23.4948 309.147 23.3089H309.166ZM288.85 16.3385C287.14 15.8181 285.43 15.3162 283.701 14.8143C283.218 14.6842 282.716 14.963 282.586 15.4277C282.456 15.911 282.734 16.4129 283.199 16.543C284.928 17.0449 286.619 17.5467 288.311 18.0486C288.404 18.0672 288.478 18.0858 288.571 18.0858C288.961 18.0858 289.314 17.8441 289.445 17.4538C289.593 16.9705 289.314 16.4686 288.85 16.3199V16.3385ZM278.534 13.3831C276.824 12.9184 275.076 12.4723 273.348 12.0262C272.864 11.9147 272.363 12.1935 272.251 12.6768C272.121 13.16 272.418 13.6433 272.902 13.7734C274.63 14.2195 276.359 14.6656 278.069 15.1303C278.143 15.1489 278.218 15.1675 278.311 15.1675C278.701 15.1675 279.073 14.9073 279.184 14.4984C279.314 14.0151 279.035 13.5132 278.552 13.3831H278.534ZM268.125 10.7436C266.396 10.3347 264.649 9.92579 262.883 9.53545C262.4 9.42393 261.916 9.73992 261.805 10.2232C261.693 10.7065 262.009 11.1898 262.492 11.3013C264.24 11.6916 265.968 12.082 267.697 12.4909C267.771 12.4909 267.846 12.5095 267.902 12.5095C268.31 12.5095 268.682 12.2307 268.775 11.8217C268.887 11.3385 268.589 10.8552 268.106 10.7251L268.125 10.7436ZM335.56 167.642C334.036 168.497 332.475 169.352 330.895 170.207C330.449 170.449 330.282 170.988 330.523 171.434C330.69 171.731 331.006 171.917 331.322 171.917C331.471 171.917 331.62 171.88 331.75 171.805C333.349 170.95 334.928 170.077 336.453 169.222C336.88 168.98 337.047 168.423 336.787 167.995C336.546 167.567 335.988 167.4 335.56 167.642ZM326.155 172.679C324.594 173.478 322.995 174.259 321.378 175.058C320.932 175.281 320.746 175.82 320.969 176.266C321.118 176.582 321.452 176.768 321.787 176.768C321.917 176.768 322.047 176.731 322.177 176.675C323.813 175.876 325.412 175.077 326.973 174.278C327.419 174.055 327.586 173.516 327.363 173.069C327.14 172.623 326.583 172.456 326.155 172.679ZM344.706 162.196C343.237 163.125 341.713 164.054 340.17 164.984C339.743 165.244 339.594 165.802 339.854 166.229C340.021 166.508 340.319 166.675 340.635 166.675C340.784 166.675 340.951 166.638 341.1 166.545C342.661 165.616 344.185 164.668 345.672 163.738C346.1 163.478 346.211 162.921 345.951 162.493C345.691 162.066 345.133 161.935 344.706 162.214V162.196ZM338.442 36.7849C336.88 35.9299 335.3 35.0749 333.702 34.257C333.256 34.0339 332.717 34.2012 332.475 34.6473C332.252 35.0934 332.419 35.6325 332.865 35.8741C334.464 36.692 336.025 37.5284 337.568 38.3835C337.717 38.4578 337.865 38.495 338.014 38.495C338.33 38.495 338.646 38.3277 338.813 38.0303C339.055 37.5842 338.888 37.0451 338.46 36.8035L338.442 36.7849ZM347.717 42.2497C346.211 41.3017 344.687 40.3723 343.126 39.4615C342.698 39.2199 342.14 39.35 341.899 39.7775C341.639 40.205 341.787 40.7627 342.215 41.0229C343.758 41.9337 345.282 42.8631 346.769 43.7925C346.918 43.8854 347.085 43.9226 347.252 43.9226C347.549 43.9226 347.847 43.7739 348.014 43.4951C348.274 43.0675 348.163 42.5099 347.735 42.2497H347.717ZM328.906 31.8406C327.308 31.0599 325.69 30.2978 324.036 29.5543C323.59 29.3499 323.051 29.5543 322.847 30.0004C322.642 30.4465 322.847 30.9856 323.293 31.2086C324.928 31.9521 326.527 32.7142 328.107 33.4949C328.237 33.5507 328.367 33.5878 328.497 33.5878C328.832 33.5878 329.148 33.402 329.315 33.086C329.538 32.6399 329.352 32.1008 328.906 31.8778V31.8406Z" fill="#E61C5D"/>
<path d="M284.482 193.387C280.262 195.599 275.485 199.019 275.95 199.949C276.433 200.859 281.972 198.908 286.21 196.696C286.601 196.491 286.972 196.305 287.344 196.101C287.957 196.324 289.259 196.807 290.894 197.421C290.876 197.421 290.839 197.421 290.82 197.421L289.686 198.015C289.556 198.09 289.5 198.276 289.593 198.443L290.169 199.54C290.262 199.707 290.43 199.781 290.578 199.707L291.712 199.112C291.712 199.112 291.805 199.019 291.824 198.945L293.143 198.257C294.538 198.778 296.062 199.335 297.549 199.893L296.433 200.469C296.303 200.543 296.248 200.729 296.341 200.897L296.917 201.993C297.01 202.161 297.177 202.235 297.326 202.161L298.459 201.566C298.459 201.566 298.552 201.473 298.571 201.398L299.854 200.729C303.664 202.123 306.861 203.294 306.991 203.276C307.27 203.239 308.924 202.309 308.924 202.309C309.315 202.105 309.612 201.9 309.594 201.845C309.575 201.807 309.11 201.993 308.738 202.198L302.028 198.146C302.326 197.96 302.53 197.774 302.474 197.699C302.419 197.607 302.065 197.699 301.675 197.885H301.638L300.318 197.105C300.597 196.937 300.783 196.752 300.746 196.659C300.69 196.566 300.337 196.659 299.947 196.844L298.738 196.12L298.069 195.413C298.422 195.209 298.664 195.004 298.608 194.911C298.552 194.818 298.199 194.911 297.809 195.097H297.79L296.452 193.685C296.805 193.499 297.047 193.276 296.991 193.183C296.935 193.09 296.582 193.183 296.192 193.369L294.965 192.067C297.79 190.562 298.887 189.93 300.987 188.833C303.106 187.737 305.058 186.528 306.675 185.413C308.757 186.175 312.865 187.718 312.865 187.718L314.092 187.197L310.17 182.718C310.504 182.42 310.746 182.179 310.913 181.993C311.75 181.472 312.27 181.119 312.214 181.026C312.177 180.933 311.601 181.138 310.727 181.528C310.467 181.565 310.114 181.64 309.649 181.77L308.199 175.933L307.066 176.64C307.066 176.64 305.913 181.194 305.356 183.257C303.59 183.926 301.582 184.763 299.463 185.673C296.842 187.03 295.671 187.606 293.255 188.833L292.883 187.086C293.274 186.881 293.552 186.621 293.497 186.528C293.441 186.435 293.125 186.528 292.772 186.677L292.363 184.763H292.381C292.772 184.539 293.051 184.298 292.995 184.205C292.939 184.112 292.623 184.205 292.27 184.372L292.065 183.424L292.158 182.012C292.549 181.807 292.827 181.547 292.772 181.454C292.734 181.38 292.474 181.417 292.158 181.547L292.251 180.004H292.288C292.679 179.781 292.958 179.539 292.902 179.428C292.865 179.354 292.586 179.391 292.27 179.539L292.772 171.714C293.143 171.51 293.571 171.249 293.552 171.212C293.534 171.175 293.199 171.286 292.79 171.51C292.79 171.51 291.08 172.327 290.894 172.55C290.82 172.643 289.946 175.933 288.905 179.855L287.623 180.525C287.623 180.525 287.493 180.506 287.418 180.525L286.285 181.119C286.154 181.194 286.099 181.38 286.192 181.547L286.768 182.644C286.861 182.811 287.028 182.885 287.177 182.811L288.292 182.235C287.883 183.777 287.474 185.339 287.102 186.789L285.783 187.476C285.783 187.476 285.653 187.458 285.578 187.476L284.444 188.071C284.314 188.145 284.259 188.331 284.351 188.499L284.928 189.595C285.021 189.763 285.188 189.837 285.337 189.763L286.47 189.168C286.47 189.168 286.489 189.131 286.508 189.112C286.08 190.785 285.727 192.105 285.56 192.755C285.188 192.941 284.816 193.146 284.426 193.35L284.482 193.387Z" fill="#E61C5D"/>
</svg>
