<svg width="32" height="32" viewBox="0 0 32 32" fill="none" xmlns="http://www.w3.org/2000/svg">
<g id="add-user 2">
<path id="Vector" fill-rule="evenodd" clip-rule="evenodd" d="M12.6666 16.7389C16.3394 16.7389 19.2834 13.7568 19.2834 10.0364C19.2834 6.31616 16.3394 3.33398 12.6666 3.33398C8.99387 3.33398 6.04979 6.31616 6.04979 10.0364C6.04979 13.7568 8.99387 16.7389 12.6666 16.7389ZM12.6666 20.0209C7.27225 20.0209 2.66663 20.8835 2.66663 24.3292C2.66663 27.7737 7.24423 28.6673 12.6666 28.6673C18.0597 28.6673 22.6666 27.8048 22.6666 24.3589C22.6666 20.9132 18.089 20.0209 12.6666 20.0209ZM26.5305 12.7845H28.1346C28.7949 12.7845 29.3333 13.3304 29.3333 14C29.3333 14.6695 28.7949 15.2155 28.1346 15.2155H26.5305V16.7852C26.5305 17.4548 25.9936 18.0007 25.332 18.0007C24.6717 18.0007 24.1333 17.4548 24.1333 16.7852V15.2155H22.532C21.8702 15.2155 21.3333 14.6695 21.3333 14C21.3333 13.3304 21.8702 12.7845 22.532 12.7845H24.1333V11.2161C24.1333 10.5466 24.6717 10.0007 25.332 10.0007C25.9936 10.0007 26.5305 10.5466 26.5305 11.2161V12.7845Z" fill="white"/>
</g>
</svg>
