<svg width="16" height="16" viewBox="0 0 16 16" fill="none" xmlns="http://www.w3.org/2000/svg">
<g id="vuesax/outline/send">
<g id="send">
<path id="Vector" d="M3.60728 14.5007C2.86062 14.5007 2.38728 14.2474 2.08728 13.9474C1.50062 13.3607 1.08728 12.1141 2.40728 9.46741L2.98728 8.31408C3.06062 8.16075 3.06062 7.84075 2.98728 7.68741L2.40728 6.53408C1.08062 3.88741 1.50062 2.63408 2.08728 2.05408C2.66728 1.46741 3.92062 1.04741 6.56062 2.37408L12.2673 5.22741C13.6873 5.93408 14.4673 6.92075 14.4673 8.00075C14.4673 9.08075 13.6873 10.0674 12.274 10.7741L6.56728 13.6274C5.27395 14.2741 4.31395 14.5007 3.60728 14.5007ZM3.60728 2.50075C3.24728 2.50075 2.96728 2.58741 2.79395 2.76075C2.30728 3.24075 2.50062 4.48741 3.30062 6.08075L3.88062 7.24075C4.09395 7.67408 4.09395 8.32741 3.88062 8.76075L3.30062 9.91408C2.50062 11.5141 2.30728 12.7541 2.79395 13.2341C3.27395 13.7207 4.52062 13.5274 6.12062 12.7274L11.8273 9.87408C12.874 9.35408 13.4673 8.66741 13.4673 7.99408C13.4673 7.32075 12.8673 6.63408 11.8206 6.11408L6.11395 3.26741C5.10062 2.76075 4.22728 2.50075 3.60728 2.50075Z" fill="#E61C5D"/>
<path id="Vector_2" d="M7.22695 8.5H3.62695C3.35362 8.5 3.12695 8.27333 3.12695 8C3.12695 7.72667 3.35362 7.5 3.62695 7.5H7.22695C7.50029 7.5 7.72695 7.72667 7.72695 8C7.72695 8.27333 7.50029 8.5 7.22695 8.5Z" fill="#E61C5D"/>
</g>
</g>
</svg>
