<svg width="20" height="20" viewBox="0 0 20 20" fill="none" xmlns="http://www.w3.org/2000/svg">
<path d="M7.15003 18.7926C6.9667 18.7926 6.77503 18.7592 6.60003 18.6842C6.20837 18.5176 5.90837 18.1926 5.77503 17.7842L5.40837 16.6842C5.2417 16.1842 5.3917 15.5592 5.75837 15.1842L7.65003 13.2842C7.67503 13.2592 7.70837 13.1676 7.70837 13.1259V11.0676L3.90837 12.7092C3.40003 12.9259 2.88337 12.9009 2.4917 12.6426C2.10003 12.3842 1.8667 11.9176 1.8667 11.3759V10.3009C1.8667 9.48424 2.45003 8.60924 3.1917 8.31758L7.70003 6.36758V4.00091C7.70003 2.99258 8.40837 1.83424 9.30837 1.36758C9.7417 1.15091 10.2417 1.15091 10.6667 1.36758C11.575 1.83424 12.2834 2.98424 12.2834 3.99258V6.35924L16.8167 8.30925C17.5584 8.62591 18.125 9.47591 18.125 10.3009V11.3759C18.125 11.9259 17.9 12.3842 17.5 12.6426C17.1 12.9009 16.5917 12.9259 16.0834 12.7176L12.2834 11.0759V13.1342C12.2834 13.1676 12.3167 13.2509 12.3417 13.2759L14.2417 15.1842C14.6084 15.5509 14.7584 16.1926 14.5917 16.6842L14.225 17.7842C14.0834 18.1926 13.7834 18.5176 13.3834 18.6759C12.9917 18.8342 12.5584 18.8176 12.1834 18.6342C12.1417 18.6092 12.1 18.5842 12.0584 18.5509L10.1167 16.9176C10.05 16.8592 9.9167 16.8676 9.85837 16.9176L7.9167 18.5509C7.88337 18.5842 7.8417 18.6092 7.80003 18.6259C7.60003 18.7426 7.37503 18.7926 7.15003 18.7926ZM7.9667 9.70091C8.15837 9.70091 8.3417 9.75091 8.50003 9.85924C8.7917 10.0509 8.95837 10.3759 8.95837 10.7592V13.1342C8.95837 13.4926 8.78337 13.9176 8.53337 14.1676L6.6417 16.0676C6.60837 16.1092 6.57503 16.2342 6.5917 16.2842L6.95837 17.3926C6.98337 17.4759 7.0417 17.5092 7.07503 17.5259C7.10003 17.5342 7.1417 17.5509 7.1917 17.5342L9.05837 15.9592C9.58337 15.5092 10.4084 15.5092 10.9334 15.9592L12.7917 17.5259C12.85 17.5342 12.8917 17.5259 12.9167 17.5176C12.95 17.5009 13.0167 17.4676 13.0417 17.3842L13.4084 16.2842C13.425 16.2259 13.3917 16.1009 13.3584 16.0676L11.4667 14.1676C11.2167 13.9342 11.0334 13.5009 11.0334 13.1342V10.7592C11.0334 10.3842 11.1917 10.0592 11.475 9.86758C11.7584 9.67591 12.125 9.65091 12.475 9.80091L16.575 11.5676C16.7 11.6176 16.7834 11.6176 16.8084 11.6009C16.8334 11.5842 16.8667 11.5092 16.8667 11.3759V10.3009C16.8667 9.98424 16.6 9.57591 16.3167 9.45925L11.6667 7.45091C11.3 7.29258 11.0417 6.89258 11.0417 6.49258V3.99258C11.0417 3.44258 10.6084 2.73424 10.1084 2.48424C10.0417 2.45091 9.95837 2.45091 9.88337 2.48424C9.40003 2.73424 8.95837 3.45924 8.95837 4.00091V6.50091C8.95837 6.89258 8.70003 7.30091 8.33337 7.45924L3.68337 9.46758C3.3917 9.58424 3.12503 9.99258 3.12503 10.3009V11.3759C3.12503 11.5092 3.15837 11.5842 3.18337 11.6009C3.20837 11.6176 3.2917 11.6176 3.4167 11.5676L7.50837 9.80091C7.65837 9.73425 7.8167 9.70091 7.9667 9.70091Z" fill="#161616"/>
</svg>
