<svg width="40" height="40" viewBox="0 0 40 40" fill="none" xmlns="http://www.w3.org/2000/svg">
<path d="M13.3333 9.58398C12.65 9.58398 12.0833 9.01732 12.0833 8.33398V3.33398C12.0833 2.65065 12.65 2.08398 13.3333 2.08398C14.0167 2.08398 14.5833 2.65065 14.5833 3.33398V8.33398C14.5833 9.01732 14.0167 9.58398 13.3333 9.58398Z" fill="white"/>
<path d="M26.6667 9.58398C25.9833 9.58398 25.4167 9.01732 25.4167 8.33398V3.33398C25.4167 2.65065 25.9833 2.08398 26.6667 2.08398C27.35 2.08398 27.9167 2.65065 27.9167 3.33398V8.33398C27.9167 9.01732 27.35 9.58398 26.6667 9.58398Z" fill="white"/>
<path d="M14.1667 24.1668C13.95 24.1668 13.7333 24.1168 13.5333 24.0335C13.3167 23.9502 13.15 23.8335 12.9833 23.6835C12.6833 23.3668 12.5 22.9335 12.5 22.5002C12.5 22.0668 12.6833 21.6335 12.9833 21.3168C13.15 21.1668 13.3333 21.0501 13.5333 20.9668C13.9333 20.8001 14.4 20.8001 14.8 20.9668C15 21.0501 15.1833 21.1668 15.35 21.3168C15.4167 21.4002 15.5 21.4835 15.55 21.5668C15.6166 21.6668 15.6667 21.7668 15.7 21.8668C15.75 21.9668 15.7834 22.0668 15.8 22.1668C15.8167 22.2835 15.8333 22.4002 15.8333 22.5002C15.8333 22.9335 15.65 23.3668 15.35 23.6835C15.1833 23.8335 15 23.9502 14.8 24.0335C14.6 24.1168 14.3833 24.1668 14.1667 24.1668Z" fill="white"/>
<path d="M20 24.166C19.7833 24.166 19.5667 24.116 19.3667 24.0327C19.15 23.9494 18.9833 23.8327 18.8167 23.6827C18.5167 23.366 18.3333 22.9327 18.3333 22.4993C18.3333 22.3993 18.35 22.2826 18.3666 22.166C18.3833 22.066 18.4166 21.966 18.4666 21.866C18.5 21.766 18.55 21.666 18.6167 21.566C18.6834 21.4827 18.75 21.3993 18.8167 21.316C19.4333 20.6993 20.55 20.6993 21.1833 21.316C21.25 21.3993 21.3166 21.4827 21.3833 21.566C21.45 21.666 21.5 21.766 21.5333 21.866C21.5833 21.966 21.6167 22.066 21.6333 22.166C21.65 22.2826 21.6667 22.3993 21.6667 22.4993C21.6667 22.9327 21.4833 23.366 21.1833 23.6827C20.8666 23.9827 20.45 24.166 20 24.166Z" fill="white"/>
<path d="M14.1667 30.0008C13.95 30.0008 13.7333 29.9508 13.5333 29.8675C13.3333 29.7842 13.15 29.6675 12.9833 29.5175C12.6833 29.2008 12.5 28.7675 12.5 28.3341C12.5 28.2341 12.5166 28.1175 12.5333 28.0175C12.55 27.9008 12.5833 27.8008 12.6333 27.7008C12.6666 27.6008 12.7167 27.5008 12.7834 27.4008C12.8334 27.3175 12.9167 27.2342 12.9833 27.1508C13.15 27.0008 13.3333 26.8841 13.5333 26.8008C13.9333 26.6341 14.4 26.6341 14.8 26.8008C15 26.8841 15.1833 27.0008 15.35 27.1508C15.4167 27.2342 15.5 27.3175 15.55 27.4008C15.6166 27.5008 15.6667 27.6008 15.7 27.7008C15.75 27.8008 15.7834 27.9008 15.8 28.0175C15.8167 28.1175 15.8333 28.2341 15.8333 28.3341C15.8333 28.7675 15.65 29.2008 15.35 29.5175C15.1833 29.6675 15 29.7842 14.8 29.8675C14.6 29.9508 14.3833 30.0008 14.1667 30.0008Z" fill="white"/>
<path d="M34.1667 16.4004H5.83333C5.14999 16.4004 4.58333 15.8337 4.58333 15.1504C4.58333 14.4671 5.14999 13.9004 5.83333 13.9004H34.1667C34.85 13.9004 35.4167 14.4671 35.4167 15.1504C35.4167 15.8337 34.85 16.4004 34.1667 16.4004Z" fill="white"/>
<path d="M26.3668 37.9667C25.7334 37.9667 25.1334 37.7334 24.7001 37.3C24.1834 36.7834 23.9501 36.0333 24.0668 35.25L24.3834 33C24.4668 32.4167 24.8168 31.7167 25.2334 31.3L31.1334 25.4C31.9334 24.6 32.7168 24.1833 33.5668 24.1C34.6168 24 35.6334 24.4333 36.6001 25.4C37.6167 26.4167 38.9834 28.4833 36.6001 30.8667L30.7001 36.7667C30.2834 37.1833 29.5834 37.5334 29.0001 37.6167L26.7501 37.9334C26.6167 37.95 26.5001 37.9667 26.3668 37.9667ZM33.8501 26.5834C33.8334 26.5834 33.8168 26.5834 33.8001 26.5834C33.5668 26.6 33.2501 26.8167 32.9001 27.1667L27.0001 33.0667C26.9501 33.1167 26.8667 33.2834 26.8667 33.35L26.5668 35.4334L28.6501 35.1333C28.7168 35.1167 28.8834 35.0333 28.9334 34.9833L34.8334 29.0834C35.5667 28.35 35.6667 27.9834 34.8334 27.15C34.5667 26.9 34.1834 26.5834 33.8501 26.5834Z" fill="white"/>
<path d="M34.8668 32.0835C34.7502 32.0835 34.6335 32.0669 34.5335 32.0335C32.3335 31.4169 30.5835 29.6669 29.9668 27.4669C29.7835 26.8002 30.1668 26.1169 30.8335 25.9169C31.5001 25.7335 32.1835 26.1169 32.3835 26.7836C32.7668 28.1502 33.8502 29.2335 35.2168 29.6169C35.8835 29.8002 36.2668 30.5002 36.0835 31.1669C35.9168 31.7169 35.4168 32.0835 34.8668 32.0835Z" fill="white"/>
<path d="M20 37.9173H13.3333C7.25 37.9173 3.75 34.4173 3.75 28.334V14.1673C3.75 8.08398 7.25 4.58398 13.3333 4.58398H26.6667C32.75 4.58398 36.25 8.08398 36.25 14.1673V20.0007C36.25 20.684 35.6833 21.2507 35 21.2507C34.3167 21.2507 33.75 20.684 33.75 20.0007V14.1673C33.75 9.40065 31.4333 7.08398 26.6667 7.08398H13.3333C8.56667 7.08398 6.25 9.40065 6.25 14.1673V28.334C6.25 33.1007 8.56667 35.4173 13.3333 35.4173H20C20.6833 35.4173 21.25 35.984 21.25 36.6673C21.25 37.3507 20.6833 37.9173 20 37.9173Z" fill="white"/>
</svg>
