<svg width="40" height="40" viewBox="0 0 40 40" fill="none" xmlns="http://www.w3.org/2000/svg">
<path d="M22.3333 29.0335H18.15C15.4167 29.0335 13.2 26.7335 13.2 23.9001C13.2 23.2168 13.7667 22.6501 14.45 22.6501C15.1333 22.6501 15.7 23.2168 15.7 23.9001C15.7 25.3501 16.8 26.5335 18.15 26.5335H22.3333C23.4167 26.5335 24.3167 25.5668 24.3167 24.4001C24.3167 22.9501 23.8 22.6668 22.95 22.3668L16.2333 20.0001C14.9333 19.5501 13.1833 18.5835 13.1833 15.6001C13.1833 13.0335 15.2 10.9668 17.6667 10.9668H21.85C24.5833 10.9668 26.8 13.2668 26.8 16.1001C26.8 16.7835 26.2333 17.3501 25.55 17.3501C24.8667 17.3501 24.3 16.7835 24.3 16.1001C24.3 14.6501 23.2 13.4668 21.85 13.4668H17.6667C16.5833 13.4668 15.6833 14.4335 15.6833 15.6001C15.6833 17.0501 16.2 17.3335 17.05 17.6335L23.7667 20.0001C25.0667 20.4501 26.8167 21.4168 26.8167 24.4001C26.8 26.9501 24.8 29.0335 22.3333 29.0335Z" fill="white"/>
<path d="M20 31.25C19.3167 31.25 18.75 30.6833 18.75 30V10C18.75 9.31667 19.3167 8.75 20 8.75C20.6833 8.75 21.25 9.31667 21.25 10V30C21.25 30.6833 20.6833 31.25 20 31.25Z" fill="white"/>
<path d="M20 37.9173C10.1167 37.9173 2.08333 29.884 2.08333 20.0007C2.08333 10.1173 10.1167 2.08398 20 2.08398C29.8833 2.08398 37.9167 10.1173 37.9167 20.0007C37.9167 29.884 29.8833 37.9173 20 37.9173ZM20 4.58398C11.5 4.58398 4.58333 11.5007 4.58333 20.0007C4.58333 28.5007 11.5 35.4173 20 35.4173C28.5 35.4173 35.4167 28.5007 35.4167 20.0007C35.4167 11.5007 28.5 4.58398 20 4.58398Z" fill="white"/>
</svg>
