<svg width="20" height="20" viewBox="0 0 20 20" fill="none" xmlns="http://www.w3.org/2000/svg">
<path d="M15.2667 10.6254H12.5C10.425 10.6254 9.375 9.45037 9.375 7.12537V4.73371C9.375 3.88371 9.475 2.66704 10.3583 2.00037C11.1 1.45037 12.1667 1.40871 13.7417 1.86704C15.8083 2.46704 17.5333 4.19204 18.1333 6.25871C18.5917 7.82537 18.55 8.90037 18 9.63371C17.3333 10.5254 16.1167 10.6254 15.2667 10.6254ZM11.9 2.80037C11.5583 2.80037 11.2917 2.86704 11.1167 3.00037C10.7917 3.24204 10.6333 3.80871 10.6333 4.73371V7.13371C10.6333 9.00037 11.35 9.38371 12.5083 9.38371H15.275C16.1917 9.38371 16.7583 9.22537 17.0083 8.90037C17.3 8.51704 17.275 7.75037 16.95 6.62537C16.4667 4.98371 15.05 3.55871 13.4083 3.08371C12.7917 2.89204 12.2917 2.80037 11.9 2.80037Z" fill="#161616"/>
<path d="M9.22515 18.9583C8.78348 18.9583 8.33348 18.9249 7.88348 18.8499C4.47515 18.2999 1.70015 15.5333 1.15015 12.1249C0.441813 7.74161 3.26681 3.60828 7.59181 2.72494C7.93348 2.65828 8.25848 2.87494 8.33348 3.20828C8.40015 3.54994 8.18348 3.87494 7.85015 3.94994C4.19181 4.69994 1.79181 8.19994 2.40015 11.9249C2.86681 14.8083 5.20848 17.1499 8.09181 17.6166C11.8335 18.2166 15.3251 15.8083 16.0668 12.1333C16.1335 11.7916 16.4668 11.5749 16.8001 11.6416C17.1418 11.7083 17.3585 12.0416 17.2918 12.3749C16.5001 16.2666 13.1001 18.9583 9.22515 18.9583Z" fill="#161616"/>
</svg>
