<svg width="20" height="20" viewBox="0 0 20 20" fill="none" xmlns="http://www.w3.org/2000/svg">
<path d="M14.5331 12.8076C14.3747 12.8076 14.2164 12.7492 14.0914 12.6242C13.8497 12.3826 13.8497 11.9826 14.0914 11.7409L15.7831 10.0492L14.0914 8.35755C13.8497 8.11588 13.8497 7.71589 14.0914 7.47422C14.3331 7.23255 14.7331 7.23255 14.9747 7.47422L17.1081 9.60755C17.3497 9.84922 17.3497 10.2492 17.1081 10.4909L14.9747 12.6242C14.8497 12.7492 14.6914 12.8076 14.5331 12.8076Z" fill="#161616"/>
<path d="M16.6088 10.6758H8.13379C7.79212 10.6758 7.50879 10.3924 7.50879 10.0508C7.50879 9.70911 7.79212 9.42578 8.13379 9.42578H16.6088C16.9505 9.42578 17.2338 9.70911 17.2338 10.0508C17.2338 10.3924 16.9505 10.6758 16.6088 10.6758Z" fill="#161616"/>
<path d="M9.79997 17.2923C5.5083 17.2923 2.5083 14.2923 2.5083 10.0007C2.5083 5.70898 5.5083 2.70898 9.79997 2.70898C10.1416 2.70898 10.425 2.99232 10.425 3.33398C10.425 3.67565 10.1416 3.95898 9.79997 3.95898C6.24163 3.95898 3.7583 6.44232 3.7583 10.0007C3.7583 13.559 6.24163 16.0423 9.79997 16.0423C10.1416 16.0423 10.425 16.3257 10.425 16.6673C10.425 17.009 10.1416 17.2923 9.79997 17.2923Z" fill="#292D32"/>
</svg>
