<svg width="40" height="40" viewBox="0 0 40 40" fill="none" xmlns="http://www.w3.org/2000/svg">
<path d="M26.0833 35.6836C25.3667 35.6836 24.65 35.5336 24.0667 35.2503L15.3167 30.8669C14.8167 30.6169 13.8333 30.6336 13.35 30.9169L9.41667 33.1669C7.71667 34.1336 5.96667 34.2669 4.65 33.4836C3.31667 32.7169 2.56667 31.1503 2.56667 29.1836V12.9836C2.56667 11.4669 3.56667 9.75026 4.88333 9.00026L12.1 4.86693C13.3167 4.16693 15.1667 4.11693 16.4167 4.75026L25.1667 9.13359C25.6667 9.38359 26.6333 9.35026 27.1333 9.08359L31.05 6.85026C32.75 5.88359 34.5 5.75026 35.8167 6.53359C37.15 7.30026 37.9 8.86693 37.9 10.8336V27.0503C37.9 28.5669 36.9 30.2836 35.5833 31.0336L28.3667 35.1669C27.7333 35.5003 26.9 35.6836 26.0833 35.6836ZM14.4 28.2003C15.1167 28.2003 15.8333 28.3503 16.4167 28.6336L25.1667 33.0169C25.6667 33.2669 26.6333 33.2336 27.1333 32.9669L34.35 28.8336C34.8833 28.5336 35.4 27.6336 35.4 27.0336V10.8169C35.4 9.76693 35.1 8.98359 34.55 8.68359C34.0167 8.38359 33.1833 8.50026 32.2833 9.01693L28.3667 11.2503C27.15 11.9503 25.3 12.0003 24.05 11.3669L15.3 6.98359C14.8 6.73359 13.8333 6.76693 13.3333 7.03359L6.11667 11.1669C5.58333 11.4669 5.06667 12.3669 5.06667 12.9836V29.2003C5.06667 30.2503 5.36667 31.0336 5.9 31.3336C6.43333 31.6503 7.26667 31.5169 8.18333 31.0003L12.1 28.7669C12.75 28.3836 13.5833 28.2003 14.4 28.2003Z" fill="white"/>
<path d="M14.2667 29.5827C13.5833 29.5827 13.0167 29.016 13.0167 28.3327V6.66602C13.0167 5.98268 13.5833 5.41602 14.2667 5.41602C14.95 5.41602 15.5167 5.98268 15.5167 6.66602V28.3327C15.5167 29.016 14.95 29.5827 14.2667 29.5827Z" fill="white"/>
<path d="M26.2167 34.5832C25.5333 34.5832 24.9667 34.0165 24.9667 33.3332V11.0332C24.9667 10.3499 25.5333 9.7832 26.2167 9.7832C26.9 9.7832 27.4667 10.3499 27.4667 11.0332V33.3332C27.4667 34.0165 26.9 34.5832 26.2167 34.5832Z" fill="white"/>
</svg>
