<svg width="20" height="20" viewBox="0 0 20 20" fill="none" xmlns="http://www.w3.org/2000/svg">
<path d="M13.0415 17.8408C12.6832 17.8408 12.3249 17.7658 12.0332 17.6242L7.6582 15.4325C7.4082 15.3075 6.91654 15.3158 6.67487 15.4575L4.7082 16.5825C3.8582 17.0658 2.9832 17.1325 2.32487 16.7408C1.6582 16.3575 1.2832 15.5742 1.2832 14.5908V6.49082C1.2832 5.73249 1.7832 4.87415 2.44154 4.49915L6.04987 2.43249C6.6582 2.08249 7.5832 2.05749 8.2082 2.37415L12.5832 4.56582C12.8332 4.69082 13.3165 4.67415 13.5665 4.54082L15.5249 3.42415C16.3749 2.94082 17.2499 2.87415 17.9082 3.26582C18.5749 3.64915 18.9499 4.43249 18.9499 5.41582V13.5242C18.9499 14.2825 18.4499 15.1408 17.7915 15.5158L14.1832 17.5825C13.8665 17.7492 13.4499 17.8408 13.0415 17.8408ZM7.19987 14.0992C7.5582 14.0992 7.91654 14.1742 8.2082 14.3158L12.5832 16.5075C12.8332 16.6325 13.3165 16.6158 13.5665 16.4825L17.1749 14.4158C17.4415 14.2658 17.6999 13.8158 17.6999 13.5158V5.40749C17.6999 4.88249 17.5499 4.49082 17.2749 4.34082C17.0082 4.19082 16.5915 4.24915 16.1415 4.50749L14.1832 5.62415C13.5749 5.97415 12.6499 5.99915 12.0249 5.68249L7.64987 3.49082C7.39987 3.36582 6.91654 3.38249 6.66654 3.51582L3.0582 5.58249C2.79154 5.73249 2.5332 6.18249 2.5332 6.49082V14.5992C2.5332 15.1242 2.6832 15.5158 2.94987 15.6658C3.21654 15.8242 3.6332 15.7575 4.09154 15.4992L6.04987 14.3825C6.37487 14.1908 6.79154 14.0992 7.19987 14.0992Z" fill="#161616"/>
<path d="M7.13379 14.7923C6.79212 14.7923 6.50879 14.509 6.50879 14.1673V3.33398C6.50879 2.99232 6.79212 2.70898 7.13379 2.70898C7.47546 2.70898 7.75879 2.99232 7.75879 3.33398V14.1673C7.75879 14.509 7.47546 14.7923 7.13379 14.7923Z" fill="#161616"/>
<path d="M13.1084 17.2926C12.7667 17.2926 12.4834 17.0092 12.4834 16.6676V5.51758C12.4834 5.17591 12.7667 4.89258 13.1084 4.89258C13.4501 4.89258 13.7334 5.17591 13.7334 5.51758V16.6676C13.7334 17.0092 13.4501 17.2926 13.1084 17.2926Z" fill="#292D32"/>
</svg>
