<svg width="20" height="20" viewBox="0 0 20 20" fill="none" xmlns="http://www.w3.org/2000/svg">
<g id="Sparkle">
<path id="Vector" d="M15.3815 10.2297L11.2807 8.71875L9.76977 4.61797C9.69282 4.40933 9.55375 4.22929 9.37131 4.10213C9.18888 3.97497 8.97184 3.90679 8.74946 3.90679C8.52708 3.90679 8.31004 3.97497 8.12761 4.10213C7.94517 4.22929 7.8061 4.40933 7.72915 4.61797L6.21821 8.71875L2.11743 10.2297C1.90879 10.3066 1.72875 10.4457 1.60159 10.6281C1.47443 10.8106 1.40625 11.0276 1.40625 11.25C1.40625 11.4724 1.47443 11.6894 1.60159 11.8719C1.72875 12.0543 1.90879 12.1934 2.11743 12.2703L6.21821 13.7813L7.72915 17.882C7.8061 18.0907 7.94517 18.2707 8.12761 18.3979C8.31004 18.525 8.52708 18.5932 8.74946 18.5932C8.97184 18.5932 9.18888 18.525 9.37131 18.3979C9.55375 18.2707 9.69282 18.0907 9.76977 17.882L11.2807 13.7813L15.3815 12.2703C15.5901 12.1934 15.7702 12.0543 15.8973 11.8719C16.0245 11.6894 16.0927 11.4724 16.0927 11.25C16.0927 11.0276 16.0245 10.8106 15.8973 10.6281C15.7702 10.4457 15.5901 10.3066 15.3815 10.2297ZM15.0573 11.3906L10.7541 12.9766C10.6904 13 10.6325 13.037 10.5845 13.085C10.5365 13.1331 10.4995 13.191 10.476 13.2547L8.89008 17.5578C8.87943 17.5865 8.86024 17.6113 8.8351 17.6288C8.80997 17.6462 8.78008 17.6556 8.74946 17.6556C8.71884 17.6556 8.68895 17.6462 8.66381 17.6288C8.63868 17.6113 8.61949 17.5865 8.60883 17.5578L7.0229 13.2547C6.99945 13.191 6.96244 13.1331 6.91442 13.085C6.86639 13.037 6.80851 13 6.74477 12.9766L2.44165 11.3906C2.41294 11.38 2.38818 11.3608 2.3707 11.3356C2.35322 11.3105 2.34384 11.2806 2.34384 11.25C2.34384 11.2194 2.35322 11.1895 2.3707 11.1644C2.38818 11.1392 2.41294 11.12 2.44165 11.1094L6.74477 9.52344C6.80851 9.5 6.86639 9.46298 6.91442 9.41496C6.96244 9.36694 6.99945 9.30905 7.0229 9.24531L8.60883 4.94219C8.61949 4.91348 8.63868 4.88872 8.66381 4.87124C8.68895 4.85376 8.71884 4.84439 8.74946 4.84439C8.78008 4.84439 8.80997 4.85376 8.8351 4.87124C8.86024 4.88872 8.87943 4.91348 8.89008 4.94219L10.476 9.24531C10.4995 9.30905 10.5365 9.36694 10.5845 9.41496C10.6325 9.46298 10.6904 9.5 10.7541 9.52344L15.0573 11.1094C15.086 11.12 15.1107 11.1392 15.1282 11.1644C15.1457 11.1895 15.1551 11.2194 15.1551 11.25C15.1551 11.2806 15.1457 11.3105 15.1282 11.3356C15.1107 11.3608 15.086 11.38 15.0573 11.3906ZM11.4057 3.125C11.4057 3.00068 11.4551 2.88145 11.543 2.79354C11.6309 2.70564 11.7501 2.65625 11.8745 2.65625H13.2807V1.25C13.2807 1.12568 13.3301 1.00645 13.418 0.918544C13.5059 0.830636 13.6251 0.78125 13.7495 0.78125C13.8738 0.78125 13.993 0.830636 14.0809 0.918544C14.1688 1.00645 14.2182 1.12568 14.2182 1.25V2.65625H15.6245C15.7488 2.65625 15.868 2.70564 15.9559 2.79354C16.0438 2.88145 16.0932 3.00068 16.0932 3.125C16.0932 3.24932 16.0438 3.36855 15.9559 3.45646C15.868 3.54436 15.7488 3.59375 15.6245 3.59375H14.2182V5C14.2182 5.12432 14.1688 5.24355 14.0809 5.33146C13.993 5.41936 13.8738 5.46875 13.7495 5.46875C13.6251 5.46875 13.5059 5.41936 13.418 5.33146C13.3301 5.24355 13.2807 5.12432 13.2807 5V3.59375H11.8745C11.7501 3.59375 11.6309 3.54436 11.543 3.45646C11.4551 3.36855 11.4057 3.24932 11.4057 3.125ZM19.2182 6.875C19.2182 6.99932 19.1688 7.11855 19.0809 7.20646C18.993 7.29436 18.8738 7.34375 18.7495 7.34375H17.9682V8.125C17.9682 8.24932 17.9188 8.36855 17.8309 8.45646C17.743 8.54436 17.6238 8.59375 17.4995 8.59375C17.3751 8.59375 17.2559 8.54436 17.168 8.45646C17.0801 8.36855 17.0307 8.24932 17.0307 8.125V7.34375H16.2495C16.1251 7.34375 16.0059 7.29436 15.918 7.20646C15.8301 7.11855 15.7807 6.99932 15.7807 6.875C15.7807 6.75068 15.8301 6.63145 15.918 6.54354C16.0059 6.45564 16.1251 6.40625 16.2495 6.40625H17.0307V5.625C17.0307 5.50068 17.0801 5.38145 17.168 5.29354C17.2559 5.20564 17.3751 5.15625 17.4995 5.15625C17.6238 5.15625 17.743 5.20564 17.8309 5.29354C17.9188 5.38145 17.9682 5.50068 17.9682 5.625V6.40625H18.7495C18.8738 6.40625 18.993 6.45564 19.0809 6.54354C19.1688 6.63145 19.2182 6.75068 19.2182 6.875Z" fill="#3E3E3E"/>
</g>
</svg>
