<svg width="24" height="24" viewBox="0 0 24 24" fill="none" xmlns="http://www.w3.org/2000/svg">
<path d="M18.4585 12.2756L13.5375 10.4625L11.7244 5.54156C11.6321 5.29119 11.4652 5.07515 11.2462 4.92256C11.0273 4.76996 10.7669 4.68815 10.5 4.68815C10.2332 4.68815 9.97272 4.76996 9.7538 4.92256C9.53487 5.07515 9.36799 5.29119 9.27565 5.54156L7.46252 10.4625L2.54158 12.2756C2.29121 12.368 2.07517 12.5349 1.92258 12.7538C1.76998 12.9727 1.68817 13.2331 1.68817 13.5C1.68817 13.7669 1.76998 14.0273 1.92258 14.2462C2.07517 14.4652 2.29121 14.632 2.54158 14.7244L7.46252 16.5375L9.27565 21.4584C9.36799 21.7088 9.53487 21.9249 9.7538 22.0774C9.97272 22.23 10.2332 22.3119 10.5 22.3119C10.7669 22.3119 11.0273 22.23 11.2462 22.0774C11.4652 21.9249 11.6321 21.7088 11.7244 21.4584L13.5375 16.5375L18.4585 14.7244C18.7088 14.632 18.9249 14.4652 19.0775 14.2462C19.2301 14.0273 19.3119 13.7669 19.3119 13.5C19.3119 13.2331 19.2301 12.9727 19.0775 12.7538C18.9249 12.5349 18.7088 12.368 18.4585 12.2756ZM18.0694 13.6688L12.9056 15.5719C12.8292 15.6 12.7597 15.6444 12.7021 15.7021C12.6444 15.7597 12.6 15.8291 12.5719 15.9056L10.6688 21.0694C10.656 21.1038 10.633 21.1335 10.6028 21.1545C10.5726 21.1755 10.5368 21.1867 10.5 21.1867C10.4633 21.1867 10.4274 21.1755 10.3972 21.1545C10.3671 21.1335 10.3441 21.1038 10.3313 21.0694L8.42815 15.9056C8.40002 15.8291 8.3556 15.7597 8.29797 15.7021C8.24035 15.6444 8.17088 15.6 8.0944 15.5719L2.93065 13.6688C2.8962 13.656 2.86649 13.6329 2.84551 13.6028C2.82453 13.5726 2.81328 13.5367 2.81328 13.5C2.81328 13.4633 2.82453 13.4274 2.84551 13.3972C2.86649 13.3671 2.8962 13.344 2.93065 13.3313L8.0944 11.4281C8.17088 11.4 8.24035 11.3556 8.29797 11.2979C8.3556 11.2403 8.40002 11.1709 8.42815 11.0944L10.3313 5.93063C10.3441 5.89618 10.3671 5.86647 10.3972 5.84549C10.4274 5.82451 10.4633 5.81326 10.5 5.81326C10.5368 5.81326 10.5726 5.82451 10.6028 5.84549C10.633 5.86647 10.656 5.89618 10.6688 5.93063L12.5719 11.0944C12.6 11.1709 12.6444 11.2403 12.7021 11.2979C12.7597 11.3556 12.8292 11.4 12.9056 11.4281L18.0694 13.3313C18.1038 13.344 18.1336 13.3671 18.1545 13.3972C18.1755 13.4274 18.1868 13.4633 18.1868 13.5C18.1868 13.5367 18.1755 13.5726 18.1545 13.6028C18.1336 13.6329 18.1038 13.656 18.0694 13.6688ZM13.6875 3.75C13.6875 3.60082 13.7468 3.45774 13.8523 3.35225C13.9578 3.24676 14.1008 3.1875 14.25 3.1875H15.9375V1.5C15.9375 1.35082 15.9968 1.20774 16.1023 1.10225C16.2078 0.996763 16.3508 0.9375 16.5 0.9375C16.6492 0.9375 16.7923 0.996763 16.8978 1.10225C17.0033 1.20774 17.0625 1.35082 17.0625 1.5V3.1875H18.75C18.8992 3.1875 19.0423 3.24676 19.1478 3.35225C19.2533 3.45774 19.3125 3.60082 19.3125 3.75C19.3125 3.89918 19.2533 4.04226 19.1478 4.14775C19.0423 4.25324 18.8992 4.3125 18.75 4.3125H17.0625V6C17.0625 6.14918 17.0033 6.29226 16.8978 6.39775C16.7923 6.50324 16.6492 6.5625 16.5 6.5625C16.3508 6.5625 16.2078 6.50324 16.1023 6.39775C15.9968 6.29226 15.9375 6.14918 15.9375 6V4.3125H14.25C14.1008 4.3125 13.9578 4.25324 13.8523 4.14775C13.7468 4.04226 13.6875 3.89918 13.6875 3.75ZM23.0625 8.25C23.0625 8.39918 23.0033 8.54226 22.8978 8.64775C22.7923 8.75324 22.6492 8.8125 22.5 8.8125H21.5625V9.75C21.5625 9.89919 21.5033 10.0423 21.3978 10.1477C21.2923 10.2532 21.1492 10.3125 21 10.3125C20.8508 10.3125 20.7078 10.2532 20.6023 10.1477C20.4968 10.0423 20.4375 9.89919 20.4375 9.75V8.8125H19.5C19.3508 8.8125 19.2078 8.75324 19.1023 8.64775C18.9968 8.54226 18.9375 8.39918 18.9375 8.25C18.9375 8.10082 18.9968 7.95774 19.1023 7.85225C19.2078 7.74676 19.3508 7.6875 19.5 7.6875H20.4375V6.75C20.4375 6.60082 20.4968 6.45774 20.6023 6.35225C20.7078 6.24676 20.8508 6.1875 21 6.1875C21.1492 6.1875 21.2923 6.24676 21.3978 6.35225C21.5033 6.45774 21.5625 6.60082 21.5625 6.75V7.6875H22.5C22.6492 7.6875 22.7923 7.74676 22.8978 7.85225C23.0033 7.95774 23.0625 8.10082 23.0625 8.25Z" fill="white"/>
</svg>
