<svg width="20" height="20" viewBox="0 0 20 20" fill="none" xmlns="http://www.w3.org/2000/svg">
<path d="M14.6665 18.8H5.3332C3.81654 18.8 2.43321 17.6333 2.18321 16.1333L1.07487 9.50005C0.89987 8.46671 1.39987 7.14172 2.22487 6.48338L7.99988 1.85834C9.11655 0.958344 10.8749 0.966685 11.9999 1.86669L17.7749 6.48338C18.5915 7.14172 19.0915 8.46671 18.9249 9.50005L17.8165 16.1333C17.5665 17.6083 16.1582 18.8 14.6665 18.8ZM9.99155 2.45003C9.54988 2.45003 9.1082 2.58334 8.7832 2.84167L3.00821 7.46671C2.53321 7.85005 2.20821 8.7 2.30821 9.3L3.41655 15.9334C3.56655 16.8084 4.44154 17.55 5.3332 17.55H14.6665C15.5582 17.55 16.4332 16.8083 16.5832 15.925L17.6915 9.29171C17.7915 8.69171 17.4582 7.83337 16.9915 7.45837L11.2165 2.84167C10.8832 2.58334 10.4415 2.45003 9.99155 2.45003Z" fill="#161616"/>
<path d="M9.99984 13.5417C8.50817 13.5417 7.2915 12.325 7.2915 10.8333C7.2915 9.34167 8.50817 8.125 9.99984 8.125C11.4915 8.125 12.7082 9.34167 12.7082 10.8333C12.7082 12.325 11.4915 13.5417 9.99984 13.5417ZM9.99984 9.375C9.19984 9.375 8.5415 10.0333 8.5415 10.8333C8.5415 11.6333 9.19984 12.2917 9.99984 12.2917C10.7998 12.2917 11.4582 11.6333 11.4582 10.8333C11.4582 10.0333 10.7998 9.375 9.99984 9.375Z" fill="#161616"/>
</svg>
