<svg width="33" height="32" viewBox="0 0 33 32" fill="none" xmlns="http://www.w3.org/2000/svg">
<g id="send">
<path id="Vector" d="M28.5986 3.44199C27.9317 2.75748 26.9446 2.50247 26.0242 2.7709L4.56209 9.01204C3.59102 9.28183 2.90274 10.0563 2.71733 11.0401C2.52791 12.0413 3.18953 13.3124 4.05387 13.8439L10.7646 17.9684C11.4529 18.3912 12.3413 18.2852 12.9108 17.7107L20.5953 9.97842C20.9821 9.57576 21.6224 9.57576 22.0093 9.97842C22.3961 10.3677 22.3961 10.9985 22.0093 11.4011L14.3114 19.1348C13.7405 19.7079 13.6338 20.6004 14.054 21.2929L18.1544 28.0711C18.6345 28.8763 19.4616 29.3327 20.3685 29.3327C20.4753 29.3327 20.5953 29.3327 20.7021 29.3192C21.7425 29.1851 22.5694 28.4737 22.8762 27.4671L29.2389 6.0324C29.519 5.11972 29.2656 4.12651 28.5986 3.44199Z" fill="white"/>
</g>
</svg>
